<svg xmlns="http://www.w3.org/2000/svg" viewBox="0 0 386.07 535.58"><defs><style>.cls-1{fill:#fff;}.cls-2{fill:#60d1d6;}.cls-3{fill:#e6ccc3;}.cls-4{fill:#ffe76e;}.cls-5{fill:#10364b;}.cls-6{fill:#ff667c;}.cls-7{fill:#000200;}.cls-8{fill:#8b6238;}.cls-9{fill:#c0282c;}.cls-10{fill:#d678a5;}.cls-11{fill:#402315;}.cls-12{fill:#2b6a3e;}.cls-13{fill:#4ea3dd;}.cls-14,.cls-15,.cls-16,.cls-17{fill:none;}.cls-14,.cls-15,.cls-16{stroke:#1a3649;}.cls-14,.cls-15{stroke-linecap:round;stroke-linejoin:round;}.cls-15{stroke-dasharray:3.03 3.03;}.cls-16{stroke-miterlimit:10;}</style></defs><title>IMPACT_FIN</title><g id="Layer_2" data-name="Layer 2"><g id="Layer_1-2" data-name="Layer 1"><path class="cls-1" d="M241.8,257.23h140A20.93,20.93,0,0,0,372.52,225a25.7,25.7,0,0,0-35-16.47,36.94,36.94,0,0,0-20.65-6.27,37.48,37.48,0,0,0-4.09.23,37.11,37.11,0,0,0-66.14,19.27q0,.49-.08,1a20.93,20.93,0,0,0-4.74,34.48Z"/><path class="cls-1" d="M21.46,337.47h96.35a18.33,18.33,0,0,0-8.17-28.2,22.5,22.5,0,0,0-29.57-14.86,32.5,32.5,0,0,0-44.44,9.44,18.33,18.33,0,0,0-14.17,33.62Z"/><path class="cls-2" d="M120.33,340.16a24.23,24.23,0,0,1,0-48.46V267.47H71.86v96.92h48.46Z"/><rect class="cls-3" x="168.47" y="315.93" width="48.46" height="48.46" transform="translate(532.86 147.46) rotate(90)"/><rect class="cls-2" x="227.94" y="-60.35" width="24.23" height="241.8" transform="translate(300.61 -179.5) rotate(90)"/><polygon class="cls-2" points="120.32 218.77 71.9 267.19 71.87 267.19 71.87 315.65 71.89 315.65 120.32 267.22 120.32 218.77"/><polygon class="cls-1" points="120.33 218.77 168.75 267.19 168.78 267.19 168.78 315.65 168.76 315.65 120.33 267.22 120.33 218.77"/><path class="cls-4" d="M96.09,534a96.92,96.92,0,0,1,193.85,0h24.23V412.85H71.86V534Z"/><rect class="cls-3" x="71.86" y="364.39" width="48.46" height="48.46" transform="translate(484.72 292.53) rotate(90)"/><rect class="cls-3" x="241.48" y="291.7" width="48.46" height="96.92" transform="translate(605.87 74.45) rotate(90)"/><rect class="cls-4" x="168.6" y="267.46" height="12.12"/><polygon class="cls-3" points="168.76 279.57 168.45 279.57 168.45 273.51 168.45 267.46 168.76 267.46 168.76 279.57 168.76 279.57"/><rect class="cls-4" x="168.6" y="291.71" height="12.09"/><polygon class="cls-3" points="168.76 303.8 168.45 303.8 168.45 297.76 168.45 291.71 168.76 291.71 168.76 303.8 168.76 303.8"/><polygon class="cls-4" points="180.72 315.92 180.72 315.92 204.95 315.92 204.95 315.92 180.72 315.92"/><rect class="cls-3" x="180.72" y="315.76" width="24.23" height="0.31"/><rect class="cls-4" x="168.6" y="291.69" height="0.02"/><polygon class="cls-3" points="168.76 291.71 168.66 291.71 168.45 291.71 168.48 291.71 168.45 291.71 168.76 291.69 168.76 291.71"/><polygon class="cls-4" points="204.95 315.92 204.95 315.92 229.18 315.92 229.18 315.92 204.95 315.92"/><rect class="cls-3" x="204.95" y="315.76" width="24.23" height="0.31"/><polygon class="cls-4" points="229.18 315.92 229.18 315.92 253.41 315.92 253.41 315.92 229.18 315.92"/><rect class="cls-3" x="229.18" y="315.76" width="24.23" height="0.31"/><rect class="cls-4" x="265.53" y="267.46" height="12.12"/><rect class="cls-3" x="265.37" y="267.46" width="0.31" height="12.12"/><rect class="cls-4" x="265.53" y="291.71" height="12.09"/><rect class="cls-3" x="265.37" y="291.71" width="0.31" height="12.09"/><rect class="cls-4" x="265.53" y="291.69" height="0.02"/><polygon class="cls-3" points="265.69 291.71 265.37 291.71 265.69 291.69 265.69 291.71"/><polygon class="cls-4" points="204.95 279.59 229.18 279.59 253.41 279.59 265.53 279.59 265.53 279.57 241.3 279.57 217.07 279.57 192.84 279.57 168.6 279.57 168.6 279.59 180.72 279.59 204.95 279.59"/><polygon class="cls-3" points="265.53 279.75 168.45 279.75 168.45 279.44 168.6 279.42 265.69 279.42 265.69 279.73 265.53 279.75"/><rect class="cls-4" x="168.6" y="267.46" width="24.23" height="12.12"/><path class="cls-3" d="M193,279.73H168.45V267.3H193Zm-24.23-.31h23.92v-11.8H168.76Z"/><rect class="cls-4" x="192.84" y="267.46" width="24.23" height="12.12"/><path class="cls-3" d="M217.22,279.73H192.68V267.3h24.55ZM193,279.41h23.92v-11.8H193Z"/><rect class="cls-4" x="217.07" y="267.46" width="24.23" height="12.12"/><path class="cls-3" d="M241.45,279.73H216.91V267.3h24.54Zm-24.23-.31h23.92v-11.8H217.22Z"/><polygon class="cls-4" points="204.95 291.69 204.95 279.59 180.72 279.59 180.72 291.69 192.84 291.69 204.95 291.69"/><path class="cls-3" d="M205.11,291.84H180.56V279.44h24.55Zm-24.23-.31h23.92V279.75H180.88Z"/><polygon class="cls-4" points="217.07 291.69 229.18 291.69 229.18 279.59 204.95 279.59 204.95 291.69 217.07 291.69"/><path class="cls-3" d="M229.34,291.84H204.79V279.44h24.54Zm-24.23-.31H229V279.75H205.11Z"/><polygon class="cls-4" points="241.3 291.69 253.41 291.69 253.41 279.59 229.18 279.59 229.18 291.69 241.3 291.69"/><path class="cls-3" d="M253.57,291.84H229V279.44h24.54Zm-24.23-.31h23.92V279.75H229.34Z"/><polygon class="cls-4" points="192.84 303.8 192.84 291.71 180.72 291.71 168.6 291.71 168.6 303.8 180.72 303.8 192.84 303.8"/><path class="cls-3" d="M193,304H168.45V291.55H193Zm-24.23-.31h23.92V291.87H168.76Z"/><rect class="cls-4" x="180.72" y="291.69" width="12.12" height="0.02"/><polygon class="cls-3" points="192.84 291.87 180.56 291.87 180.56 291.55 180.72 291.53 192.99 291.53 192.99 291.85 192.84 291.87"/><polygon class="cls-4" points="204.95 291.71 192.84 291.71 192.84 303.8 204.95 303.8 217.07 303.8 217.07 291.71 204.95 291.71"/><path class="cls-3" d="M217.22,304H192.68V291.55h24.55ZM193,303.65h23.92V291.87H193Z"/><rect class="cls-4" x="192.84" y="291.69" width="12.12" height="0.02"/><polygon class="cls-3" points="205.11 291.87 192.68 291.87 192.68 291.55 192.84 291.53 205.11 291.53 205.11 291.87"/><rect class="cls-4" x="204.95" y="291.69" width="12.12" height="0.02"/><polygon class="cls-3" points="217.07 291.87 204.79 291.87 204.79 291.55 204.95 291.53 217.22 291.53 217.22 291.85 217.07 291.87"/><polygon class="cls-4" points="217.07 291.71 217.07 303.8 229.18 303.8 241.3 303.8 241.3 291.71 229.18 291.71 217.07 291.71"/><path class="cls-3" d="M241.45,304H216.91V291.55h24.54Zm-24.23-.31h23.92V291.87H217.22Z"/><rect class="cls-4" x="217.07" y="291.69" width="12.12" height="0.02"/><polygon class="cls-3" points="229.18 291.87 216.91 291.87 216.91 291.55 217.07 291.53 229.34 291.53 229.34 291.85 229.18 291.87"/><rect class="cls-4" x="229.18" y="291.69" width="12.12" height="0.02"/><polygon class="cls-3" points="241.3 291.87 229.02 291.87 229.02 291.55 229.18 291.53 241.45 291.53 241.45 291.85 241.3 291.87"/><polygon class="cls-4" points="192.84 303.8 180.72 303.8 180.72 315.92 204.95 315.92 204.95 303.8 192.84 303.8"/><path class="cls-3" d="M205.11,316.08H180.56V303.65h24.55Zm-24.23-.31h23.92V304H180.88Z"/><rect class="cls-4" x="168.6" y="279.59" width="12.12" height="12.09"/><path class="cls-3" d="M180.88,291.84H168.45V279.44h12.43Zm-12.12-.31h11.8V279.75h-11.8Z"/><rect class="cls-4" x="168.6" y="291.69" width="12.12" height="0.02"/><polygon class="cls-3" points="180.72 291.87 168.45 291.87 168.45 291.55 168.6 291.53 180.88 291.53 180.88 291.85 180.72 291.87"/><rect class="cls-4" x="168.6" y="303.8" width="12.12" height="12.12"/><path class="cls-3" d="M180.88,316.08H168.45V303.65h12.43Zm-12.12-.31h11.8V304h-11.8Z"/><polygon class="cls-4" points="217.07 303.8 204.95 303.8 204.95 315.92 229.18 315.92 229.18 303.8 217.07 303.8"/><path class="cls-3" d="M229.34,316.08H204.79V303.65h24.54Zm-24.23-.31H229V304H205.11Z"/><polygon class="cls-4" points="241.3 303.8 229.18 303.8 229.18 315.92 253.41 315.92 253.41 303.8 241.3 303.8"/><path class="cls-3" d="M253.57,316.08H229V303.65h24.54Zm-24.23-.31h23.92V304H229.34Z"/><rect class="cls-4" x="241.3" y="267.46" width="24.23" height="12.12"/><path class="cls-3" d="M265.69,279.73H241.14V267.3h24.55Zm-24.23-.31h23.92v-11.8H241.45Z"/><rect class="cls-4" x="253.41" y="279.59" width="12.12" height="12.09"/><path class="cls-3" d="M265.69,291.84H253.25V279.44h12.43Zm-12.12-.31h11.8V279.75h-11.8Z"/><polygon class="cls-4" points="241.3 291.71 241.3 303.8 253.41 303.8 265.53 303.8 265.53 291.71 253.41 291.71 241.3 291.71"/><path class="cls-3" d="M265.69,304H241.14V291.55h24.55Zm-24.23-.31h23.92V291.87H241.45Z"/><rect class="cls-4" x="241.3" y="291.69" width="12.12" height="0.02"/><polygon class="cls-3" points="253.41 291.87 241.14 291.87 241.14 291.53 253.57 291.53 253.57 291.85 253.41 291.87"/><rect class="cls-4" x="253.41" y="291.69" width="12.12" height="0.02"/><polygon class="cls-3" points="265.53 291.87 253.25 291.87 253.25 291.55 253.41 291.53 265.69 291.53 265.69 291.85 265.53 291.87"/><rect class="cls-4" x="253.41" y="303.8" width="12.12" height="12.12"/><path class="cls-3" d="M265.69,316.08H253.25V303.65h12.43Zm-12.12-.31h11.8V304h-11.8Z"/><rect class="cls-3" x="217.26" y="315.93" height="12.12"/><rect class="cls-4" x="217.1" y="315.93" width="0.31" height="12.12"/><rect class="cls-3" x="217.26" y="340.18" height="12.09"/><rect class="cls-4" x="217.1" y="340.18" width="0.31" height="12.09"/><polygon class="cls-3" points="229.37 364.39 229.37 364.39 253.6 364.39 253.6 364.39 229.37 364.39"/><rect class="cls-4" x="229.37" y="364.24" width="24.23" height="0.31"/><rect class="cls-3" x="217.26" y="340.16" height="0.02"/><polygon class="cls-4" points="217.41 340.18 217.1 340.18 217.41 340.16 217.41 340.18"/><polygon class="cls-3" points="253.6 364.39 253.6 364.39 277.83 364.39 277.83 364.39 253.6 364.39"/><rect class="cls-4" x="253.6" y="364.24" width="24.23" height="0.31"/><polygon class="cls-3" points="277.83 364.39 277.83 364.39 302.06 364.39 302.06 364.39 277.83 364.39"/><rect class="cls-4" x="277.83" y="364.24" width="24.23" height="0.31"/><rect class="cls-3" x="314.18" y="315.93" height="12.12"/><rect class="cls-4" x="314.02" y="315.93" width="0.31" height="12.12"/><rect class="cls-3" x="314.18" y="340.18" height="12.09"/><rect class="cls-4" x="314.02" y="340.18" width="0.31" height="12.09"/><rect class="cls-3" x="314.18" y="340.16" height="0.02"/><polygon class="cls-4" points="314.34 340.18 314.02 340.18 314.34 340.16 314.34 340.18"/><polygon class="cls-3" points="253.6 328.07 277.83 328.07 302.06 328.07 314.18 328.07 314.18 328.05 289.95 328.05 265.72 328.05 241.49 328.05 217.26 328.05 217.26 328.07 229.37 328.07 253.6 328.07"/><polygon class="cls-4" points="314.18 328.23 217.1 328.23 217.1 327.91 217.26 327.89 314.34 327.89 314.34 328.2 314.18 328.23"/><rect class="cls-3" x="217.26" y="315.93" width="24.23" height="12.12"/><path class="cls-4" d="M241.64,328.2H217.1V315.77h24.54Zm-24.23-.31h23.92v-11.8H217.41Z"/><rect class="cls-3" x="241.49" y="315.93" width="24.23" height="12.12"/><path class="cls-4" d="M265.87,328.2H241.33V315.77h24.54Zm-24.23-.31h23.92v-11.8H241.64Z"/><rect class="cls-3" x="265.72" y="315.93" width="24.23" height="12.12"/><path class="cls-4" d="M290.11,328.2H265.56V315.77h24.55Zm-24.23-.31h23.92v-11.8H265.87Z"/><polygon class="cls-3" points="253.6 340.16 253.6 328.07 229.37 328.07 229.37 340.16 241.49 340.16 253.6 340.16"/><path class="cls-4" d="M253.76,340.32H229.21V327.91h24.54ZM229.53,340h23.92V328.23H229.53Z"/><polygon class="cls-3" points="265.72 340.16 277.83 340.16 277.83 328.07 253.6 328.07 253.6 340.16 265.72 340.16"/><path class="cls-4" d="M278,340.32H253.44V327.91H278ZM253.76,340h23.92V328.23H253.76Z"/><polygon class="cls-3" points="289.95 340.16 302.06 340.16 302.06 328.07 277.83 328.07 277.83 340.16 289.95 340.16"/><path class="cls-4" d="M302.22,340.32H277.67V327.91h24.55ZM278,340h23.92V328.23H278Z"/><polygon class="cls-3" points="241.49 352.28 241.49 340.18 229.37 340.18 217.26 340.18 217.26 352.28 229.37 352.28 241.49 352.28"/><path class="cls-4" d="M241.64,352.43H217.1V340h24.54Zm-24.23-.31h23.92V340.34H217.41Z"/><rect class="cls-3" x="229.37" y="340.16" width="12.12" height="0.02"/><polygon class="cls-4" points="241.49 340.34 229.21 340.34 229.21 340.03 229.37 340 241.64 340 241.64 340.32 241.49 340.34"/><polygon class="cls-3" points="253.6 340.18 241.49 340.18 241.49 352.28 253.6 352.28 265.72 352.28 265.72 340.18 253.6 340.18"/><path class="cls-4" d="M265.87,352.43H241.33V340h24.54Zm-24.23-.31h23.92V340.34H241.64Z"/><rect class="cls-3" x="241.49" y="340.16" width="12.12" height="0.02"/><polygon class="cls-4" points="253.76 340.34 241.33 340.34 241.33 340.03 241.49 340 253.76 340 253.76 340.34"/><rect class="cls-3" x="253.6" y="340.16" width="12.12" height="0.02"/><polygon class="cls-4" points="265.72 340.34 253.44 340.34 253.44 340.03 253.6 340 265.87 340 265.87 340.32 265.72 340.34"/><polygon class="cls-3" points="265.72 340.18 265.72 352.28 277.83 352.28 289.95 352.28 289.95 340.18 277.83 340.18 265.72 340.18"/><path class="cls-4" d="M290.11,352.43H265.56V340h24.55Zm-24.23-.31h23.92V340.34H265.87Z"/><rect class="cls-3" x="265.72" y="340.16" width="12.12" height="0.02"/><polygon class="cls-4" points="277.83 340.34 265.56 340.34 265.56 340.03 265.72 340 277.99 340 277.99 340.32 277.83 340.34"/><rect class="cls-3" x="277.83" y="340.16" width="12.12" height="0.02"/><polygon class="cls-4" points="289.95 340.34 277.68 340.34 277.68 340.03 277.83 340 290.11 340 290.11 340.32 289.95 340.34"/><polygon class="cls-3" points="241.49 352.28 229.37 352.28 229.37 364.39 253.6 364.39 253.6 352.28 241.49 352.28"/><path class="cls-4" d="M253.76,364.55H229.21V352.12h24.54Zm-24.23-.31h23.92v-11.8H229.53Z"/><rect class="cls-3" x="217.26" y="328.07" width="12.12" height="12.09"/><path class="cls-4" d="M229.53,340.32H217.1V327.91h12.43ZM217.41,340h11.8V328.23h-11.8Z"/><rect class="cls-3" x="217.26" y="340.16" width="12.12" height="0.02"/><polygon class="cls-4" points="229.37 340.34 217.1 340.34 217.1 340.03 217.26 340 229.53 340 229.53 340.32 229.37 340.34"/><rect class="cls-3" x="217.26" y="352.28" width="12.12" height="12.12"/><path class="cls-4" d="M229.53,364.55H217.1V352.12h12.43Zm-12.12-.31h11.8v-11.8h-11.8Z"/><polygon class="cls-3" points="265.72 352.28 253.6 352.28 253.6 364.39 277.83 364.39 277.83 352.28 265.72 352.28"/><path class="cls-4" d="M278,364.55H253.44V352.12H278Zm-24.23-.31h23.92v-11.8H253.76Z"/><polygon class="cls-3" points="289.95 352.28 277.83 352.28 277.83 364.39 302.06 364.39 302.06 352.28 289.95 352.28"/><path class="cls-4" d="M302.22,364.55H277.67V352.12h24.55ZM278,364.24h23.92v-11.8H278Z"/><rect class="cls-3" x="289.95" y="315.93" width="24.23" height="12.12"/><path class="cls-4" d="M314.34,328.2H289.79V315.77h24.54Zm-24.23-.31H314v-11.8H290.11Z"/><rect class="cls-3" x="302.06" y="328.07" width="12.12" height="12.09"/><path class="cls-4" d="M314.34,340.32H301.91V327.91h12.43ZM302.22,340H314V328.23h-11.8Z"/><polygon class="cls-3" points="289.95 340.18 289.95 352.28 302.06 352.28 314.18 352.28 314.18 340.18 302.06 340.18 289.95 340.18"/><path class="cls-4" d="M314.34,352.43H289.79V340h24.54Zm-24.23-.31H314V340.34H290.11Z"/><rect class="cls-3" x="289.95" y="340.16" width="12.12" height="0.02"/><polygon class="cls-4" points="302.06 340.34 289.79 340.34 289.79 340 302.22 340 302.22 340.32 302.06 340.34"/><rect class="cls-3" x="302.06" y="340.16" width="12.12" height="0.02"/><polygon class="cls-4" points="314.18 340.34 301.91 340.34 301.91 340.03 302.06 340 314.34 340 314.34 340.32 314.18 340.34"/><rect class="cls-3" x="302.06" y="352.28" width="12.12" height="12.12"/><path class="cls-4" d="M314.34,364.55H301.91V352.12h12.43Zm-12.12-.31H314v-11.8h-11.8Z"/><rect class="cls-4" x="120.32" y="364.39" height="12.12"/><rect class="cls-3" x="120.16" y="364.39" width="0.32" height="12.12"/><rect class="cls-4" x="120.32" y="388.65" height="12.09"/><rect class="cls-3" x="120.16" y="388.65" width="0.32" height="12.09"/><polygon class="cls-4" points="132.43 412.85 132.43 412.85 156.66 412.85 156.66 412.85 132.43 412.85"/><rect class="cls-3" x="132.43" y="412.7" width="24.23" height="0.31"/><rect class="cls-4" x="120.32" y="388.62" height="0.02"/><polygon class="cls-3" points="120.47 388.64 120.16 388.64 120.47 388.62 120.47 388.64"/><polygon class="cls-4" points="156.66 412.85 156.66 412.85 180.9 412.85 180.9 412.85 156.66 412.85"/><rect class="cls-3" x="156.66" y="412.7" width="24.23" height="0.31"/><polygon class="cls-4" points="180.9 412.85 180.9 412.85 205.13 412.85 205.13 412.85 180.9 412.85"/><rect class="cls-3" x="180.89" y="412.7" width="24.23" height="0.31"/><rect class="cls-4" x="217.24" y="364.39" height="12.12"/><rect class="cls-3" x="217.08" y="364.39" width="0.31" height="12.12"/><rect class="cls-4" x="217.24" y="388.65" height="12.09"/><rect class="cls-3" x="217.08" y="388.65" width="0.31" height="12.09"/><rect class="cls-4" x="217.24" y="388.62" height="0.02"/><polygon class="cls-3" points="217.4 388.64 217.08 388.64 217.4 388.62 217.4 388.64"/><polygon class="cls-4" points="156.66 376.53 180.9 376.53 205.13 376.53 217.24 376.53 217.24 376.51 193.01 376.51 168.78 376.51 144.55 376.51 120.32 376.51 120.32 376.53 132.43 376.53 156.66 376.53"/><polygon class="cls-3" points="217.24 376.69 120.16 376.69 120.16 376.37 120.32 376.35 217.4 376.35 217.4 376.67 217.24 376.69"/><rect class="cls-4" x="120.32" y="364.39" width="24.23" height="12.12"/><path class="cls-3" d="M144.71,376.66H120.16V364.24h24.55Zm-24.23-.31h23.92v-11.8H120.48Z"/><rect class="cls-4" x="144.55" y="364.39" width="24.23" height="12.12"/><path class="cls-3" d="M168.94,376.66H144.39V364.24h24.55Zm-24.23-.31h23.92v-11.8H144.71Z"/><rect class="cls-4" x="168.78" y="364.39" width="24.23" height="12.12"/><path class="cls-3" d="M193.17,376.66H168.62V364.24h24.55Zm-24.23-.31h23.92v-11.8H168.94Z"/><polygon class="cls-4" points="156.66 388.62 156.66 376.53 132.43 376.53 132.43 388.62 144.55 388.62 156.66 388.62"/><path class="cls-3" d="M156.82,388.78H132.27V376.37h24.55Zm-24.23-.31h23.92V376.69H132.59Z"/><polygon class="cls-4" points="168.78 388.62 180.9 388.62 180.9 376.53 156.66 376.53 156.66 388.62 168.78 388.62"/><path class="cls-3" d="M181.05,388.78H156.51V376.37h24.55Zm-24.23-.31h23.92V376.69H156.82Z"/><polygon class="cls-4" points="193.01 388.62 205.13 388.62 205.13 376.53 180.9 376.53 180.9 388.62 193.01 388.62"/><path class="cls-3" d="M205.28,388.78H180.74V376.37h24.55Zm-24.23-.31H205V376.69H181.05Z"/><polygon class="cls-4" points="144.55 400.74 144.55 388.64 132.43 388.64 120.32 388.64 120.32 400.74 132.43 400.74 144.55 400.74"/><path class="cls-3" d="M144.71,400.9H120.16V388.49h24.55Zm-24.23-.31h23.92V388.8H120.48Z"/><rect class="cls-4" x="132.43" y="388.62" width="12.12" height="0.02"/><polygon class="cls-3" points="144.55 388.8 132.28 388.8 132.28 388.49 132.43 388.47 144.71 388.47 144.71 388.78 144.55 388.8"/><polygon class="cls-4" points="156.66 388.64 144.55 388.64 144.55 400.74 156.66 400.74 168.78 400.74 168.78 388.64 156.66 388.64"/><path class="cls-3" d="M168.94,400.9H144.39V388.49h24.55Zm-24.23-.31h23.92V388.8H144.71Z"/><rect class="cls-4" x="144.55" y="388.62" width="12.12" height="0.02"/><polygon class="cls-3" points="156.82 388.8 144.39 388.8 144.39 388.49 144.55 388.47 156.82 388.47 156.82 388.8"/><rect class="cls-4" x="156.66" y="388.62" width="12.12" height="0.02"/><polygon class="cls-3" points="168.78 388.8 156.51 388.8 156.51 388.49 156.66 388.47 168.94 388.47 168.94 388.78 168.78 388.8"/><polygon class="cls-4" points="168.78 388.64 168.78 400.74 180.9 400.74 193.01 400.74 193.01 388.64 180.9 388.64 168.78 388.64"/><path class="cls-3" d="M193.17,400.9H168.62V388.49h24.55Zm-24.23-.31h23.92V388.8H168.94Z"/><rect class="cls-4" x="168.78" y="388.62" width="12.12" height="0.02"/><polygon class="cls-3" points="180.9 388.8 168.62 388.8 168.62 388.49 168.78 388.47 181.05 388.47 181.05 388.78 180.9 388.8"/><rect class="cls-4" x="180.89" y="388.62" width="12.12" height="0.02"/><polygon class="cls-3" points="193.01 388.8 180.74 388.8 180.74 388.49 180.9 388.47 193.17 388.47 193.17 388.78 193.01 388.8"/><polygon class="cls-4" points="144.55 400.74 132.43 400.74 132.43 412.85 156.66 412.85 156.66 400.74 144.55 400.74"/><path class="cls-3" d="M156.82,413H132.27V400.58h24.55Zm-24.23-.31h23.92V400.9H132.59Z"/><rect class="cls-4" x="120.32" y="376.53" width="12.12" height="12.09"/><path class="cls-3" d="M132.59,388.78H120.16V376.37h12.43Zm-12.12-.31h11.8V376.69h-11.8Z"/><rect class="cls-4" x="120.32" y="388.62" width="12.12" height="0.02"/><polygon class="cls-3" points="132.43 388.8 120.16 388.8 120.16 388.49 120.32 388.47 132.59 388.47 132.59 388.78 132.43 388.8"/><rect class="cls-4" x="120.32" y="400.74" width="12.12" height="12.12"/><path class="cls-3" d="M132.59,413H120.16V400.58h12.43Zm-12.12-.31h11.8V400.9h-11.8Z"/><polygon class="cls-4" points="168.78 400.74 156.66 400.74 156.66 412.85 180.9 412.85 180.9 400.74 168.78 400.74"/><path class="cls-3" d="M181.05,413H156.51V400.58h24.55Zm-24.23-.31h23.92V400.9H156.82Z"/><polygon class="cls-4" points="193.01 400.74 180.9 400.74 180.9 412.85 205.13 412.85 205.13 400.74 193.01 400.74"/><path class="cls-3" d="M205.28,413H180.74V400.58h24.55Zm-24.23-.31H205V400.9H181.05Z"/><rect class="cls-4" x="193.01" y="364.39" width="24.23" height="12.12"/><path class="cls-3" d="M217.4,376.66H192.85V364.24H217.4Zm-24.23-.31h23.92v-11.8H193.17Z"/><rect class="cls-4" x="205.13" y="376.53" width="12.12" height="12.09"/><path class="cls-3" d="M217.4,388.78H205V376.37H217.4Zm-12.12-.31h11.8V376.69h-11.8Z"/><polygon class="cls-4" points="193.01 388.64 193.01 400.74 205.13 400.74 217.24 400.74 217.24 388.64 205.13 388.64 193.01 388.64"/><path class="cls-3" d="M217.4,400.9H192.85V388.49H217.4Zm-24.23-.31h23.92V388.8H193.17Z"/><rect class="cls-4" x="193.01" y="388.62" width="12.12" height="0.02"/><polygon class="cls-3" points="205.13 388.8 192.85 388.8 192.85 388.47 205.28 388.47 205.28 388.78 205.13 388.8"/><rect class="cls-4" x="205.13" y="388.62" width="12.12" height="0.02"/><polygon class="cls-3" points="217.24 388.8 204.97 388.8 204.97 388.49 205.13 388.47 217.4 388.47 217.4 388.78 217.24 388.8"/><rect class="cls-4" x="205.13" y="400.74" width="12.12" height="12.12"/><path class="cls-3" d="M217.4,413H205V400.58H217.4Zm-12.12-.31h11.8V400.9h-11.8Z"/><path class="cls-5" d="M191.59,29.52c3,4.92,1.65,15.17,1.65,15.17l-1.69,0s-.87-10.34-3.72-12.82l-.66.12a65.18,65.18,0,0,1-3.9,12.27l-1.52.13s1.65-8.93,1.74-11.9,1-.31,1.21-4C184.83,26.46,189.4,26,191.59,29.52Z"/><path class="cls-6" d="M183.24,44.3c-.71,1.82-.61,3.06-.06,3.14a.92.92,0,0,1,.92,1l-3.25,0,.91-4Z"/><path class="cls-6" d="M193.25,44.69c-.12,2.12.24,2.46.76,2.68,1.07.47.89,1.06.89,1.06H192l-.4-3.71Z"/><path class="cls-7" d="M198.15,8.67c-.93-2.14-4-1.29-5.26,0a4,4,0,0,0-2.23.51c-2.34,1.07,0,4.38,2.12,3.75a3.4,3.4,0,0,0,3.44-1.5C197.6,11.31,198.88,10.35,198.15,8.67Z"/><path class="cls-8" d="M195.32,8.68a9.81,9.81,0,0,0-2.2,2.91,1.29,1.29,0,1,0,2.26,1.25A6.18,6.18,0,0,1,196.67,11a1.58,1.58,0,0,0,.42-2,1.2,1.2,0,0,0-1.77-.38Z"/><path class="cls-8" d="M197.3,8.7a1.75,1.75,0,0,0-2.06.85c-.64.78-.24,1.3.27,1.8a2.72,2.72,0,0,0,1.11.59c.62.13,1.09-.61,1.17-1.2C198,9.28,197.69,8.84,197.3,8.7Z"/><path class="cls-7" d="M195,10.16a5.61,5.61,0,0,1-1.76-.56c1.47-.61,2.14-1.82,4.38-1.35C196.9,9.34,196.26,10.31,195,10.16Z"/><path class="cls-8" d="M207.25,15.18c-3.71,2.57-10,2.41-12.17-2-.54-1.09-2.17-.13-1.63,1,2.64,5.29,10.21,5.81,14.75,2.67,1-.69.05-2.33-1-1.63Z"/><path class="cls-6" d="M193.52,11.36a4.75,4.75,0,0,1,3,2.23c.86,2.19-.3,4.63-1.73,6.3-4.44,5.19-2.15,8.2-1.42,14.63L183.5,32c0-2.52.4-13.83,5-18.28C189.91,12.37,191.72,11.05,193.52,11.36Z"/><path class="cls-8" d="M193.26,11.32s1,3.28,1.77,3.73.57-2.62.57-2.62S194.57,10.77,193.26,11.32Z"/><path class="cls-6" d="M68.74,409.09A24.39,24.39,0,0,0,90.07,419c1.4-.09,1.41-2.28,0-2.19A22.14,22.14,0,0,1,70.63,408c-.84-1.11-2.74,0-1.89,1.1Z"/><path class="cls-6" d="M60.73,431a67,67,0,0,0-5.42-9l3.89-.73s6.3,9.81,4.45,10.72a19.56,19.56,0,0,1-2.1,1c-1.61.68-8.29,2.66-7.87,3.61s-.15,1.17-.15,1.17L52,435.79Z"/><path class="cls-6" d="M68,428.19a44.26,44.26,0,0,0-9.59-1.92l1.94-3.45s11.56,1.48,11.08,3.48a19.56,19.56,0,0,1-.62,2.22c-.52,1.67-3.28,8.06-2.29,8.35s.8.87.8.87l-2.41-.09Z"/><path class="cls-9" d="M59.85,430.86a15.94,15.94,0,0,1,7.61-1.92,25.25,25.25,0,0,0,4-.61S75.37,421,66.28,418l-10.54-4.73S52,421.51,59.85,430.86Z"/><rect class="cls-3" x="47.61" y="437.79" width="24.26" height="48.51"/><rect class="cls-3" x="47.61" y="484.95" width="24.26" height="48.51"/><rect class="cls-2" x="23.29" y="484.95" width="24.26" height="48.51"/><path class="cls-10" d="M102,448.81c-3-.73-6.33-1.7-8.64-3.81-2.57-2.35-3-5.76-3.18-9.07-.06-1.4-2.25-1.41-2.19,0,.15,3.56.66,7.28,3.19,10s6.63,4.11,10.23,5c1.37.34,2-1.77.58-2.11Z"/><path class="cls-10" d="M104.45,445.14a1.91,1.91,0,0,1,.31-2.43c.64-.9,1.31-.63,2-.22a3,3,0,0,1,.94,1c.31.62-.34,1.33-.93,1.58C105.26,445.7,104.71,445.52,104.45,445.14Z"/><rect class="cls-10" x="105.22" y="443.37" width="1.67" height="3.35" rx="0.84" ry="0.84" transform="translate(93.45 -12.29) rotate(11.83)"/><path class="cls-11" d="M108.34,443.94a1.82,1.82,0,0,0-.83-1.85c-.57-.43-2.61-1.13-2.48.31a.82.82,0,0,0,.49.61,2.23,2.23,0,0,0,.73.26c-.28.34-.68,1.41.31.53,0,0-.5,1.3.31,1.42S108.18,444.57,108.34,443.94Z"/><polygon class="cls-12" points="104.07 485.15 108.87 485.99 108.24 482.81 107.05 482.05 106.41 484.34 104.07 485.15"/><polygon class="cls-12" points="91.77 487.04 96.4 485.51 94.34 483.01 92.93 482.9 93.45 485.22 91.77 487.04"/><path class="cls-5" d="M106.14,484.53c-1-1.3-6.07-7.9-6.6-10.73s2.75-9,3.77-10.82l2.82,1.61c-1.82,3.19-3.62,7.41-3.4,8.6.29,1.52,3.66,6.37,6,9.34Z"/><path class="cls-5" d="M92,484.28c-.43-1.58-2.56-9.63-2-12.44s6-7.27,7.64-8.53l2,2.57c-2.91,2.25-6.2,5.45-6.45,6.63-.32,1.51.93,7.29,1.92,10.91Z"/><path class="cls-1" d="M99.4,451c.39-3.24,3.06-6.51,8-4.6,9,3.53-2.65,23.8-2.65,23.8s-11.14-1-12.81-5.66c.25.15,4.23-4.44,5.48-7A17.41,17.41,0,0,0,99.4,451Z"/><rect class="cls-2" x="81.4" y="371.29" width="11.65" height="101.74" transform="translate(101.31 -8.69) rotate(13.55)"/><path class="cls-5" d="M75.68,403.77c-.88-2.13-3.87-1.34-5.19-.12a3.19,3.19,0,0,0-2.21.46c-.91.55-1.21,1.76-2.25,1.57-.88-.16-1.25-.81-2.19-.56a2.5,2.5,0,0,0-1.59,1.79c-.49,1.9,1.15,2.84,2.85,2.91a4.44,4.44,0,0,0,3.59-1.6,2.26,2.26,0,0,0,.4,0,2,2,0,0,0,1.22-.41,3.36,3.36,0,0,0,3.41-1.42C75.09,406.36,76.37,405.44,75.68,403.77Z"/><path class="cls-6" d="M73.19,403.14a9.81,9.81,0,0,0-2.84,2.28c-1.17,1.39.72,3.15,1.89,1.76a6.18,6.18,0,0,1,1.7-1.45,1.58,1.58,0,0,0,.88-1.8,1.2,1.2,0,0,0-1.63-.8Z"/><path class="cls-6" d="M75.11,403.64a1.75,1.75,0,0,0-2.21.32c-.81.6-.55,1.2-.17,1.81a2.72,2.72,0,0,0,.93.84c.57.27,1.21-.33,1.43-.88C75.63,404.37,75.46,403.88,75.11,403.64Z"/><path class="cls-6" d="M82.62,427c-4.08-2.15-5.84-6.41-7.41-10.5-.5-1.3-2.62-.74-2.11.58,1.78,4.63,3.81,9.38,8.42,11.8,1.25.65,2.35-1.23,1.1-1.89Z"/><path class="cls-13" d="M76.79,418a20.37,20.37,0,0,0-3.53-10.53c-3.53-5.09-14.62-.82-17.52,5.78l6.91,3.11c-.31.24,4.88.17,7.59-1.27,1.34-.71,2.62,4,2.62,4Z"/><path class="cls-5" d="M65.78,406.19a5.28,5.28,0,0,1-1.5-.57,22.34,22.34,0,0,1,4-.75C67.55,405.68,66.91,406.4,65.78,406.19Z"/><path class="cls-5" d="M72,404.78a5.61,5.61,0,0,1-1.7-.72c1.52-.47,2.3-1.61,4.49-.94C74,404.14,73.28,405,72,404.78Z"/><path class="cls-10" d="M99.44,449.61c-2.92.44-6.6.39-9.21-1.1s-3.87-4.08-5.06-6.58c-.6-1.27-2.49-.16-1.89,1.1,1.51,3.18,3.42,6.31,6.75,7.82,3,1.36,6.78,1.36,10,.87,1.39-.21.8-2.32-.58-2.11Z"/><path class="cls-1" d="M100.91,447.53a8.74,8.74,0,0,1-5.83,2.3L95,454a17.31,17.31,0,0,0,6.88-.41C106.19,452.51,100.91,447.53,100.91,447.53Z"/><path class="cls-5" d="M384.83,535.58H1.2a1.1,1.1,0,0,1-1.2-.94,1,1,0,0,1,1-.95H384.6c.9,0,1.43.42,1.43.95A1.1,1.1,0,0,1,384.83,535.58Z"/><path class="cls-5" d="M216.87,218.69a24.27,24.27,0,0,1-48.53,0H144.07a48.54,48.54,0,0,0,97.07,0H216.87Z"/><path class="cls-1" d="M95.48,121.79a24.35,24.35,0,0,1,48.7,0h24.35a48.7,48.7,0,0,0-97.41,0H95.48Z"/><polygon class="cls-6" points="168.32 218.52 192.56 170.06 168.32 170.06 168.32 218.52"/><polygon class="cls-6" points="192.56 170.06 216.79 218.52 216.79 170.06 192.56 170.06"/><circle class="cls-5" cx="119.83" cy="187.48" r="24.23"/><path class="cls-4" d="M102.53,147A24.35,24.35,0,0,1,137,181.39h0l17.22,17.22a48.7,48.7,0,0,0-68.88-68.88L102.53,147Z"/><path class="cls-3" d="M137.14,181.23a24.35,24.35,0,0,1-34.44-34.44h0L85.48,129.57a48.7,48.7,0,0,0,68.88,68.88l-17.22-17.22Z"/><path class="cls-1" d="M241.48,121.79a24.35,24.35,0,0,1,48.7,0h24.35a48.7,48.7,0,0,0-97.41,0h24.35Z"/><circle class="cls-5" cx="265.83" cy="187.48" r="24.23"/><path class="cls-4" d="M248.53,147A24.35,24.35,0,0,1,283,181.39h0l17.22,17.22a48.7,48.7,0,0,0-68.88-68.88L248.53,147Z"/><path class="cls-3" d="M283.14,181.23a24.35,24.35,0,0,1-34.44-34.44h0l-17.22-17.22a48.7,48.7,0,0,0,68.88,68.88l-17.22-17.22Z"/><circle class="cls-3" cx="290.94" cy="291.36" r="24.23"/><path class="cls-1" d="M282.16,289.72c-.72,0-.93-.27-.93-.78v-.18c0-.51.21-.78.93-.78h2.1c.81-4.13,3.53-6.74,7.4-6.74s6,2.34,6,3.68a1.18,1.18,0,0,1-1.17,1.11,5.19,5.19,0,0,0-4.94-3.08c-2.66,0-4.61,1.95-5.3,5h6.47c.72,0,.93.27.93.78v.18c0,.51-.21.78-.93.78H286a7.45,7.45,0,0,0,0,.84V292a5.64,5.64,0,0,0,0,.72h6.71c.72,0,.93.27.93.78v.18c0,.51-.21.78-.93.78h-6.47c.69,3.08,2.66,5.15,5.48,5.15,2.46,0,3.89-1.26,4.85-3.35.06-.12,1.2.15,1.2,1.14,0,1.44-2.34,4-6,4-4.1,0-6.83-2.55-7.58-6.88h-2.06c-.72,0-.93-.27-.93-.78v-.18c0-.51.21-.78.93-.78H284a6.64,6.64,0,0,1,0-.78v-1.35a8.63,8.63,0,0,1,0-.87Z"/><circle class="cls-3" cx="223.91" cy="24.24" r="24.23" transform="translate(135.04 231.18) rotate(-72.94)"/><path class="cls-1" d="M216,20.09c-.69-.21-.81-.53-.66-1l.05-.17c.15-.49.43-.68,1.12-.47l2,.61c2-3.71,5.35-5.4,9-4.27s5,4,4.64,5.28a1.18,1.18,0,0,1-1.44.72,5.19,5.19,0,0,0-3.82-4.4c-2.55-.78-5,.51-6.54,3.25l6.18,1.9c.69.21.81.53.66,1l-.05.17c-.15.49-.43.68-1.12.47l-6.41-2a7.45,7.45,0,0,0-.28.79L219,23.38a5.64,5.64,0,0,0-.18.69l6.41,2c.69.21.81.53.66,1l-.05.17c-.15.49-.43.68-1.12.47l-6.18-1.9c-.25,3.15,1,5.7,3.73,6.53,2.35.72,4.09-.06,5.62-1.78a1.15,1.15,0,0,1,.81,1.44c-.42,1.38-3.39,3.09-6.86,2-3.92-1.2-5.78-4.44-5.22-8.8l-2-.61c-.69-.21-.81-.53-.66-1l.05-.17c.15-.49.43-.68,1.12-.47l1.8.55a6.64,6.64,0,0,1,.2-.75l.4-1.29a8.63,8.63,0,0,1,.28-.82Z"/><circle class="cls-3" cx="241.5" cy="388.62" r="24.23"/><path class="cls-1" d="M232.72,387c-.72,0-.93-.27-.93-.78V386c0-.51.21-.78.93-.78h2.1c.81-4.13,3.53-6.74,7.4-6.74s6,2.34,6,3.68A1.18,1.18,0,0,1,247,383.3a5.19,5.19,0,0,0-4.94-3.08c-2.66,0-4.61,1.95-5.3,5h6.47c.72,0,.93.27.93.78v.18c0,.51-.21.78-.93.78h-6.71a7.45,7.45,0,0,0,0,.84v1.44a5.64,5.64,0,0,0,0,.72h6.71c.72,0,.93.27.93.78v.18c0,.51-.21.78-.93.78h-6.47c.69,3.08,2.66,5.15,5.48,5.15,2.46,0,3.89-1.26,4.85-3.35.06-.12,1.2.15,1.2,1.14,0,1.44-2.34,4-6,4-4.1,0-6.83-2.55-7.58-6.88h-2.06c-.72,0-.93-.27-.93-.78v-.18c0-.51.21-.78.93-.78h1.89a6.64,6.64,0,0,1,0-.78v-1.35a8.63,8.63,0,0,1,0-.87Z"/><circle class="cls-3" cx="101.49" cy="509.2" r="24.23"/><path class="cls-1" d="M92.7,507.56c-.72,0-.93-.27-.93-.78v-.18c0-.51.21-.78.93-.78h2.1c.81-4.13,3.53-6.74,7.4-6.74s6,2.34,6,3.68a1.18,1.18,0,0,1-1.17,1.11,5.19,5.19,0,0,0-4.94-3.08c-2.66,0-4.61,1.95-5.3,5h6.47c.72,0,.93.27.93.78v.18c0,.51-.21.78-.93.78H96.54a7.45,7.45,0,0,0,0,.84v1.44a5.64,5.64,0,0,0,0,.72h6.71c.72,0,.93.27.93.78v.18c0,.51-.21.78-.93.78H96.77c.69,3.08,2.66,5.15,5.48,5.15,2.46,0,3.89-1.26,4.85-3.35.06-.12,1.2.15,1.2,1.14,0,1.44-2.34,4-6,4-4.1,0-6.83-2.55-7.58-6.88H92.7c-.72,0-.93-.27-.93-.78v-.18c0-.51.21-.78.93-.78h1.89a6.64,6.64,0,0,1,0-.78v-1.35a8.63,8.63,0,0,1,0-.87Z"/><circle class="cls-3" cx="120.32" cy="315.92" r="24.23"/><path class="cls-1" d="M111.53,314.27c-.72,0-.93-.27-.93-.78v-.18c0-.51.21-.78.93-.78h2.1c.81-4.13,3.53-6.74,7.4-6.74s6,2.34,6,3.68a1.18,1.18,0,0,1-1.17,1.11,5.19,5.19,0,0,0-4.94-3.08c-2.66,0-4.61,1.95-5.3,5h6.47c.72,0,.93.27.93.78v.18c0,.51-.21.78-.93.78h-6.71a7.45,7.45,0,0,0,0,.84v1.44a5.64,5.64,0,0,0,0,.72h6.71c.72,0,.93.27.93.78v.18c0,.51-.21.78-.93.78H115.6c.69,3.08,2.66,5.15,5.48,5.15,2.46,0,3.89-1.26,4.85-3.35.06-.12,1.2.15,1.2,1.14,0,1.44-2.34,4-6,4-4.1,0-6.83-2.55-7.58-6.88h-2.06c-.72,0-.93-.27-.93-.78V318c0-.51.21-.78.93-.78h1.89a6.64,6.64,0,0,1,0-.78v-1.35a8.63,8.63,0,0,1,0-.87Z"/><path class="cls-8" d="M202.91,20.27c-4.24,1.29-10.06-.78-10.76-5.56-.2-1.39-2.31-.8-2.11.58.88,5.94,8.16,8.7,13.45,7.09,1.34-.41.77-2.52-.58-2.11Z"/><line class="cls-14" x1="341.47" y1="370.45" x2="341.47" y2="368.95"/><line class="cls-15" x1="341.47" y1="365.92" x2="341.47" y2="76.68"/><line class="cls-14" x1="341.47" y1="75.17" x2="341.47" y2="73.67"/><path class="cls-16" d="M341.59,370.45a12.13,12.13,0,1,0,12.12,12.12"/><rect class="cls-17" y="1" width="386.03" height="533.64"/><rect class="cls-3" x="168.32" y="169.9" width="12.12"/><rect class="cls-4" x="168.32" y="169.74" width="12.12" height="0.31"/><rect class="cls-3" x="192.58" y="169.9" width="12.09"/><rect class="cls-4" x="192.58" y="169.74" width="12.09" height="0.31"/><rect class="cls-3" x="216.79" y="133.55" height="24.23"/><rect class="cls-4" x="216.63" y="133.55" width="0.31" height="24.23"/><rect class="cls-3" x="192.56" y="169.9" width="0.02"/><polygon class="cls-4" points="192.58 169.74 192.58 170.06 192.56 169.74 192.58 169.74"/><rect class="cls-3" x="216.79" y="109.32" height="24.23"/><rect class="cls-4" x="216.63" y="109.32" width="0.31" height="24.23"/><rect class="cls-3" x="216.79" y="85.09" height="24.23"/><rect class="cls-4" x="216.63" y="85.09" width="0.31" height="24.23"/><rect class="cls-3" x="168.32" y="72.98" width="12.12"/><rect class="cls-4" x="168.32" y="72.82" width="12.12" height="0.31"/><rect class="cls-3" x="192.58" y="72.98" width="12.09"/><rect class="cls-4" x="192.58" y="72.82" width="12.09" height="0.31"/><rect class="cls-3" x="192.56" y="72.98" width="0.02"/><polygon class="cls-4" points="192.58 72.82 192.58 73.13 192.56 72.82 192.58 72.82"/><polygon class="cls-3" points="180.46 133.55 180.46 109.32 180.46 85.09 180.46 72.97 180.44 72.97 180.44 97.21 180.44 121.44 180.44 145.67 180.44 169.9 180.46 169.9 180.46 157.78 180.46 133.55"/><polygon class="cls-4" points="180.62 72.97 180.62 170.06 180.3 170.06 180.28 169.9 180.28 72.82 180.6 72.82 180.62 72.97"/><rect class="cls-3" x="168.32" y="145.67" width="12.12" height="24.23"/><path class="cls-4" d="M180.6,145.51v24.54H168.17V145.51Zm-.31,24.23V145.82h-11.8v23.92Z"/><rect class="cls-3" x="168.32" y="121.44" width="12.12" height="24.23"/><path class="cls-4" d="M180.6,121.28v24.54H168.17V121.28Zm-.31,24.23V121.59h-11.8v23.92Z"/><rect class="cls-3" x="168.32" y="97.21" width="12.12" height="24.23"/><path class="cls-4" d="M180.6,97v24.55H168.17V97Zm-.31,24.23V97.36h-11.8v23.92Z"/><polygon class="cls-3" points="192.56 133.55 180.46 133.55 180.46 157.78 192.56 157.78 192.56 145.67 192.56 133.55"/><path class="cls-4" d="M192.71,133.39v24.54H180.3V133.39Zm-.31,24.23V133.71H180.62v23.92Z"/><polygon class="cls-3" points="192.56 121.44 192.56 109.32 180.46 109.32 180.46 133.55 192.56 133.55 192.56 121.44"/><path class="cls-4" d="M192.71,109.16v24.54H180.3V109.16Zm-.31,24.23V109.48H180.62v23.92Z"/><polygon class="cls-3" points="192.56 97.21 192.56 85.09 180.46 85.09 180.46 109.32 192.56 109.32 192.56 97.21"/><path class="cls-4" d="M192.71,84.93v24.55H180.3V84.93Zm-.31,24.23V85.25H180.62v23.92Z"/><polygon class="cls-3" points="204.67 145.67 192.58 145.67 192.58 157.78 192.58 169.9 204.67 169.9 204.67 157.78 204.67 145.67"/><path class="cls-4" d="M204.83,145.51v24.54H192.42V145.51Zm-.31,24.23V145.82H192.73v23.92Z"/><rect class="cls-3" x="192.56" y="145.67" width="0.02" height="12.12"/><polygon class="cls-4" points="192.73 145.67 192.73 157.94 192.42 157.94 192.4 157.78 192.4 145.51 192.71 145.51 192.73 145.67"/><polygon class="cls-3" points="192.58 133.55 192.58 145.67 204.67 145.67 204.67 133.55 204.67 121.44 192.58 121.44 192.58 133.55"/><path class="cls-4" d="M204.83,121.28v24.54H192.42V121.28Zm-.31,24.23V121.59H192.73v23.92Z"/><rect class="cls-3" x="192.56" y="133.55" width="0.02" height="12.12"/><polygon class="cls-4" points="192.73 133.4 192.73 145.82 192.42 145.82 192.4 145.67 192.4 133.4 192.73 133.4"/><rect class="cls-3" x="192.56" y="121.44" width="0.02" height="12.12"/><polygon class="cls-4" points="192.73 121.44 192.73 133.71 192.42 133.71 192.4 133.55 192.4 121.28 192.71 121.28 192.73 121.44"/><polygon class="cls-3" points="192.58 121.44 204.67 121.44 204.67 109.32 204.67 97.21 192.58 97.21 192.58 109.32 192.58 121.44"/><path class="cls-4" d="M204.83,97v24.55H192.42V97Zm-.31,24.23V97.36H192.73v23.92Z"/><rect class="cls-3" x="192.56" y="109.32" width="0.02" height="12.12"/><polygon class="cls-4" points="192.73 109.32 192.73 121.59 192.42 121.59 192.4 121.44 192.4 109.16 192.71 109.16 192.73 109.32"/><rect class="cls-3" x="192.56" y="97.21" width="0.02" height="12.12"/><polygon class="cls-4" points="192.73 97.2 192.73 109.48 192.42 109.48 192.4 109.32 192.4 97.05 192.71 97.05 192.73 97.2"/><polygon class="cls-3" points="204.67 145.67 204.67 157.78 216.79 157.78 216.79 133.55 204.67 133.55 204.67 145.67"/><path class="cls-4" d="M216.94,133.39v24.54H204.51V133.39Zm-.31,24.23V133.71h-11.8v23.92Z"/><rect class="cls-3" x="180.46" y="157.78" width="12.09" height="12.12"/><path class="cls-4" d="M192.71,157.63v12.43H180.3V157.63Zm-.31,12.12v-11.8H180.62v11.8Z"/><rect class="cls-3" x="192.56" y="157.78" width="0.02" height="12.12"/><polygon class="cls-4" points="192.73 157.78 192.73 170.06 192.42 170.06 192.4 169.9 192.4 157.63 192.71 157.63 192.73 157.78"/><rect class="cls-3" x="204.67" y="157.78" width="12.12" height="12.12"/><path class="cls-4" d="M216.94,157.63v12.43H204.51V157.63Zm-.31,12.12v-11.8h-11.8v11.8Z"/><polygon class="cls-3" points="204.67 121.44 204.67 133.55 216.79 133.55 216.79 109.32 204.67 109.32 204.67 121.44"/><path class="cls-4" d="M216.94,109.16v24.54H204.51V109.16Zm-.31,24.23V109.48h-11.8v23.92Z"/><polygon class="cls-3" points="204.67 97.21 204.67 109.32 216.79 109.32 216.79 85.09 204.67 85.09 204.67 97.21"/><path class="cls-4" d="M216.94,84.93v24.55H204.51V84.93Zm-.31,24.23V85.25h-11.8v23.92Z"/><rect class="cls-3" x="168.32" y="72.98" width="12.12" height="24.23"/><path class="cls-4" d="M180.6,72.82V97.36H168.17V72.82ZM180.28,97V73.13h-11.8V97Z"/><rect class="cls-3" x="180.46" y="72.98" width="12.09" height="12.12"/><path class="cls-4" d="M192.71,72.82V85.25H180.3V72.82Zm-.31,12.12V73.13H180.62v11.8Z"/><polygon class="cls-3" points="192.58 97.21 204.67 97.21 204.67 85.09 204.67 72.97 192.58 72.97 192.58 85.09 192.58 97.21"/><path class="cls-4" d="M204.83,72.82V97.36H192.42V72.82ZM204.51,97V73.13H192.73V97Z"/><rect class="cls-3" x="192.56" y="85.09" width="0.02" height="12.12"/><polygon class="cls-4" points="192.73 85.09 192.73 97.36 192.4 97.36 192.4 84.93 192.71 84.93 192.73 85.09"/><rect class="cls-3" x="192.56" y="72.98" width="0.02" height="12.12"/><polygon class="cls-4" points="192.73 72.97 192.73 85.25 192.42 85.25 192.4 85.09 192.4 72.82 192.71 72.82 192.73 72.97"/><rect class="cls-3" x="204.67" y="72.98" width="12.12" height="12.12"/><path class="cls-4" d="M216.94,72.82V85.25H204.51V72.82Zm-.31,12.12V73.13h-11.8v11.8Z"/></g></g></svg>