<svg xmlns="http://www.w3.org/2000/svg" viewBox="0 0 386.48 534.58"><defs><style>.cls-1{fill:#10364b;}.cls-2{fill:#fff;}.cls-14,.cls-3{fill:#ffe76e;}.cls-4{fill:#e6ccc3;}.cls-5{fill:#60d1d6;}.cls-15,.cls-6{fill:none;}.cls-6{stroke:#902b8b;stroke-width:2px;}.cls-14,.cls-6{stroke-linecap:round;stroke-linejoin:round;}.cls-7{fill:#d3647c;}.cls-8{fill:#ed1c24;}.cls-9{fill:#ff667c;}.cls-10{fill:#c0282c;}.cls-11{fill:#8b6238;}.cls-12{fill:#c6b198;}.cls-13{fill:#000200;}.cls-14{stroke:#60d1d6;stroke-width:0.84px;}</style></defs><title>TEOKOMST_FIN</title><g id="Layer_2" data-name="Layer 2"><g id="Layer_1-2" data-name="Layer 1"><path class="cls-1" d="M217.8,363a24.26,24.26,0,0,1-48.51,0H145a48.51,48.51,0,0,0,97,0H217.8Z"/><path class="cls-2" d="M7,363h140a20.93,20.93,0,0,0-9.33-32.21,25.7,25.7,0,0,0-35-16.47A36.94,36.94,0,0,0,82.09,308a37.48,37.48,0,0,0-4.09.23,37.11,37.11,0,0,0-66.14,19.27q0,.49-.08,1A20.93,20.93,0,0,0,7,363Z"/><path class="cls-2" d="M263.74,240.53h96.35a18.33,18.33,0,0,0-8.17-28.2,22.5,22.5,0,0,0-29.57-14.86,32.5,32.5,0,0,0-44.44,9.44,18.33,18.33,0,0,0-14.17,33.62Z"/><circle class="cls-1" cx="257.66" cy="124.39" r="24.26"/><path class="cls-3" d="M247.54,121.44A24.35,24.35,0,0,0,282,87h0L299.2,69.78a48.7,48.7,0,0,1-68.88,68.88l17.22-17.22Z"/><path class="cls-4" d="M282,87a24.35,24.35,0,0,0-34.44,34.44h0l-17.22,17.22A48.7,48.7,0,0,1,299.2,69.78L282,87Z"/><circle class="cls-1" cx="112.09" cy="124.39" r="24.23"/><path class="cls-3" d="M101.34,121.44A24.35,24.35,0,0,0,135.78,87h0L153,69.78a48.7,48.7,0,0,1-68.88,68.88l17.22-17.22Z"/><path class="cls-4" d="M135.78,87a24.35,24.35,0,0,0-34.44,34.44h0L84.12,138.66A48.7,48.7,0,0,1,153,69.78L135.78,87Z"/><path class="cls-3" d="M241.92,363.06a24.23,24.23,0,0,1,48.46,0h24.23V314.6H217.69v48.46Z"/><path class="cls-5" d="M96.57,363.08a24.23,24.23,0,1,1,48.46,0h24.23V314.61H72.34v48.46Z"/><path class="cls-6" d="M276.91,482.68"/><path class="cls-4" d="M290.42,363.08a96.92,96.92,0,1,1-193.85,0H72.34V484.23H314.65V363.08Z"/><circle class="cls-4" cx="96.72" cy="508.73" r="24.23"/><path class="cls-2" d="M87.94,507.08c-.72,0-.93-.27-.93-.78v-.18c0-.51.21-.78.93-.78H90c.81-4.13,3.53-6.74,7.4-6.74s6,2.34,6,3.68a1.18,1.18,0,0,1-1.17,1.11,5.19,5.19,0,0,0-4.94-3.08c-2.66,0-4.61,1.95-5.3,5h6.47c.72,0,.93.27.93.78v.18c0,.51-.21.78-.93.78H91.77a7.45,7.45,0,0,0,0,.84v1.44a5.64,5.64,0,0,0,0,.72h6.71c.72,0,.93.27.93.78V511c0,.51-.21.78-.93.78H92c.69,3.08,2.66,5.15,5.48,5.15,2.46,0,3.89-1.26,4.85-3.35.06-.12,1.2.15,1.2,1.14,0,1.44-2.34,4-6,4-4.1,0-6.83-2.55-7.58-6.88H87.94c-.72,0-.93-.27-.93-.78v-.18c0-.51.21-.78.93-.78h1.89a6.64,6.64,0,0,1,0-.78V508a8.63,8.63,0,0,1,0-.87Z"/><circle class="cls-4" cx="290.48" cy="508.73" r="24.23"/><path class="cls-2" d="M281.7,507.08c-.72,0-.93-.27-.93-.78v-.18c0-.51.21-.78.93-.78h2.1c.81-4.13,3.53-6.74,7.4-6.74s6,2.34,6,3.68A1.18,1.18,0,0,1,296,503.4a5.19,5.19,0,0,0-4.94-3.08c-2.66,0-4.61,1.95-5.3,5h6.47c.72,0,.93.27.93.78v.18c0,.51-.21.78-.93.78h-6.71a7.45,7.45,0,0,0,0,.84v1.44a5.64,5.64,0,0,0,0,.72h6.71c.72,0,.93.27.93.78V511c0,.51-.21.78-.93.78h-6.47c.69,3.08,2.66,5.15,5.48,5.15,2.46,0,3.89-1.26,4.85-3.35.06-.12,1.2.15,1.2,1.14,0,1.44-2.34,4-6,4-4.1,0-6.83-2.55-7.58-6.88H281.7c-.72,0-.93-.27-.93-.78v-.18c0-.51.21-.78.93-.78h1.89a6.64,6.64,0,0,1,0-.78V508a8.63,8.63,0,0,1,0-.87Z"/><path class="cls-1" d="M385.28,534.58H1.64a1.1,1.1,0,0,1-1.2-.94,1,1,0,0,1,1-.95H385c.9,0,1.43.42,1.43.95A1.1,1.1,0,0,1,385.28,534.58Z"/><path class="cls-2" d="M253.74,309.77c-.57,1.63-.84,3.83-.23,4,1.23.26,1.31.75,1.31.75h-3.32l.67-4.5Z"/><path class="cls-2" d="M264,310.83c0,2.2.27,2.9.85,3,1.3.22,1.3.65,1.3.65h-3.3l-.35-4.13Z"/><path class="cls-7" d="M275.47,284h0c-10-.15-15.37-4.35-15.59-4.53a1,1,0,0,1,1.29-1.62c.09.07,5.14,3.94,14.33,4.08a1,1,0,0,1,0,2.08Z"/><path class="cls-2" d="M261.34,276.87s3.47,4.26,12.51,4.66a18.59,18.59,0,0,1,.32,3s-8.38-.31-12.82-2.6S259.15,275.09,261.34,276.87Z"/><circle class="cls-4" cx="290.48" cy="290.25" r="24.23" transform="translate(-45.89 54.71) rotate(-9.98)"/><path class="cls-2" d="M281.55,290.15c-.71.12-1-.1-1-.61l0-.18c-.09-.5.07-.8.78-.93l2.06-.36c.08-4.21,2.31-7.25,6.12-7.92s6.3,1.26,6.53,2.59a1.18,1.18,0,0,1-1,1.29,5.19,5.19,0,0,0-5.4-2.18c-2.62.46-4.2,2.71-4.35,5.87l6.37-1.12c.71-.12,1,.1,1,.61l0,.18c.09.5-.07.8-.78.93l-6.61,1.16a7.45,7.45,0,0,0,.12.83l.25,1.42a5.64,5.64,0,0,0,.15.7l6.61-1.16c.71-.12,1,.11,1,.61l0,.18c.09.5-.07.8-.78.93l-6.37,1.12c1.21,2.92,3.52,4.61,6.29,4.12,2.42-.43,3.62-1.91,4.2-4.14a1.15,1.15,0,0,1,1.38.91c.25,1.42-1.62,4.3-5.18,4.92-4,.71-7.16-1.32-8.65-5.47l-2,.36c-.71.12-1-.11-1-.61l0-.18c-.09-.5.07-.8.78-.93l1.86-.33a6.64,6.64,0,0,1-.16-.76l-.23-1.33a8.63,8.63,0,0,1-.12-.86Z"/><path class="cls-2" d="M261.18,276.74l-8.43,22.2s4.62-.3,11,2.61c0,0-2.42-9.19-2.18-13.09S264.8,277.87,261.18,276.74Z"/><path class="cls-8" d="M259.69,294.07c5.43,6.08,4.32,16.76,4.32,16.76l-1.5-.48s-1.55-11.17-4.62-13.61l-.68.15a67.53,67.53,0,0,1-3.47,12.88l-1.57.2s1.29-9.32,1.25-12.4-.22-2.25.2-4.36S256.79,290.83,259.69,294.07Z"/><path class="cls-3" d="M262.67,272.22c-1.39-2-4.28-.47-5.34,1.08a4.13,4.13,0,0,0-2.16,1c-2.15,1.58.9,4.44,2.94,3.35a3.53,3.53,0,0,0,3.17-2.25C262.67,275,263.77,273.76,262.67,272.22Z"/><path class="cls-9" d="M259.48,273.3a8.17,8.17,0,0,0-1.3,2.74,1.08,1.08,0,1,0,2.05.63A5.15,5.15,0,0,1,261,275a1.31,1.31,0,0,0,0-1.67,1,1,0,0,0-1.51,0Z"/><path class="cls-9" d="M261.82,272.43a1.81,1.81,0,0,0-1.91,1.3c-.48.92,0,1.37.66,1.76a2.82,2.82,0,0,0,1.25.36c.65,0,1-.85.93-1.46C262.64,272.87,262.25,272.49,261.82,272.43Z"/><path class="cls-3" d="M259.76,274.4a5.81,5.81,0,0,1-1.9-.2c1.36-.93,1.79-2.3,4.16-2.3C261.55,273.16,261.1,274.28,259.76,274.4Z"/><path class="cls-10" d="M258.53,275.9a4.8,4.8,0,0,1,3.48,1.58c1.31,2,.31,4.56-.46,6.69-1.78,4.87-.88,8.94,1.16,15.23l-10.27-1.85c-.55-2.51-1-12,1.18-18.22C254.84,275.9,256.66,276,258.53,275.9Z"/><path class="cls-9" d="M258.27,275.94s1.68,3.12,2.58,3.41,0-2.78,0-2.78S259.49,275.1,258.27,275.94Z"/><path class="cls-2" d="M256.83,275.89s5.26-1.57,1.46,25.31l-7.75-2.68A53.31,53.31,0,0,0,251.72,288C251.51,279.89,254.1,275.45,256.83,275.89Z"/><path class="cls-9" d="M269.38,288.68a1,1,0,0,1-.38-.07c-9.31-3.62-12.89-9.44-13-9.69a1,1,0,0,1,1.78-1.07h0c0,.05,3.4,5.47,12,8.82a1,1,0,0,1-.38,2Z"/><path class="cls-2" d="M258.25,277.05s1.77,5.2,10.1,8.73a18.59,18.59,0,0,1-.76,3s-7.74-3.21-11.11-6.91S256.81,274.62,258.25,277.05Z"/><path class="cls-1" d="M76.13,295.6c-3,4.92-1.65,15.17-1.65,15.17l1.69,0S77,300.47,79.88,298l.66.12a65.18,65.18,0,0,0,3.9,12.27l1.52.13s-1.65-8.93-1.74-11.9-1-.31-1.21-4C82.89,292.54,78.32,292,76.13,295.6Z"/><path class="cls-7" d="M74.47,310.77c.12,2.12-.24,2.46-.76,2.68-1.07.47-.89,1.13-.89,1.13h2.95l.4-3.78Z"/><path class="cls-7" d="M84.44,310.38c.7,2.46.71,2.85.19,3.08-1.07.47-.89,1.13-.89,1.13h2.95L86,310.51Z"/><polygon class="cls-2" points="115.15 196.68 111.75 193.19 110.4 196.14 110.92 197.45 112.78 195.96 115.15 196.68"/><polygon class="cls-2" points="124.61 206.42 121.21 202.93 119.85 205.88 120.38 207.19 122.23 205.71 124.61 206.42"/><path class="cls-1" d="M112.61,196.16l-3.22-.45c-.52,3.72-1.66,9.53-2.54,10.78-.7,1-5,2.64-8.54,3.55l.81,3.15c2-.51,8.66-2.38,10.39-4.82S112.38,197.79,112.61,196.16Z"/><path class="cls-1" d="M122.26,206.48l-2.8-1.65c-1.91,3.23-5.19,8.16-6.5,9-1,.65-5.61.52-9.25,0l-.47,3.22c2,.3,8.91,1.14,11.44-.46S121.43,207.89,122.26,206.48Z"/><path class="cls-2" d="M93.26,221.79c-2.6,2-6.8,2.34-8.84-2.51-3.77-9,18.93-14.67,18.93-14.67s7,8.72,4.86,13.14c-1.31,0-6.13.06-8.81.91A17.41,17.41,0,0,0,93.26,221.79Z"/><path class="cls-11" d="M78.72,278.91a1,1,0,0,0,.52-1.86c-.24-.15-5.48-3.48-4.56-11.84a1,1,0,0,0-2-.22c-1.06,9.69,5.24,13.61,5.51,13.78A1,1,0,0,0,78.72,278.91Z"/><path class="cls-12" d="M77,287.69c1.43-4.7-1-9,2.3-11.34,1.45-1.05,3.46-1.75,4.9-.68a4.34,4.34,0,0,1,1.74,1.7c1.22,2.26-2.51,10.27-.59,18.23C85.76,297.2,85,300,84,300l-6.83-.12a4.46,4.46,0,0,1-2.76-.91C73.58,298.09,76.66,288.82,77,287.69Z"/><path class="cls-11" d="M84.93,273.17a7.49,7.49,0,0,1-.59,2.72,1,1,0,1,1-1.85-.69,4.72,4.72,0,0,0,.41-1.66,1.2,1.2,0,0,1,.93-1.22.92.92,0,0,1,1.1.84Z"/><path class="cls-11" d="M84,271.29a1.75,1.75,0,0,1,.7,2.12c-.17,1-.83,1-1.54,1a2.72,2.72,0,0,1-1.17-.46c-.5-.39-.25-1.23.15-1.67C83.13,271.14,83.65,271.08,84,271.29Z"/><ellipse class="cls-13" cx="85.34" cy="273.47" rx="1.54" ry="2.05" transform="translate(-46.72 19.25) rotate(-10.12)"/><path class="cls-13" d="M83.5,271.19a1,1,0,0,0,.7,1.39C85.33,272.88,85,271,83.5,271.19Z"/><path class="cls-13" d="M82.66,271.72s.71-.21.84-.53A1.2,1.2,0,0,0,82.66,271.72Z"/><path class="cls-9" d="M78,233.18a1,1,0,0,1-.61-1.8c7.67-5.83,7.37-9.37,7.36-9.41a1,1,0,0,1,.85-1.12,1,1,0,0,1,1.13.8c.08.46.55,4.71-8.13,11.32A1,1,0,0,1,78,233.18Z"/><path class="cls-2" d="M84.29,218.49a8.74,8.74,0,0,1-.5,6.25l3.72,1.92a17.31,17.31,0,0,0,2.66-6.35C91.09,215.93,84.29,218.49,84.29,218.49Z"/><path class="cls-9" d="M85.51,222.28a1.91,1.91,0,0,1-2,1.47c-1.09.16-1.36-.5-1.54-1.27a3,3,0,0,1,.07-1.37c.23-.65,1.19-.69,1.79-.43C85.35,221.31,85.6,221.83,85.51,222.28Z"/><rect class="cls-9" x="83.48" y="219.52" width="1.67" height="3.35" rx="0.84" ry="0.84" transform="translate(-57.57 410.68) rotate(-122.3)"/><path class="cls-13" d="M81.94,220.32a1.82,1.82,0,0,0-.75,1.88c.09.7,1,2.66,1.95,1.57a.82.82,0,0,0,.1-.78,2.23,2.23,0,0,0-.32-.71c.44,0,1.48-.49.17-.59,0,0,1.28-.54.8-1.21A1.53,1.53,0,0,0,81.94,220.32Z"/><circle class="cls-4" cx="66.41" cy="245.06" r="24.23" transform="translate(-41.45 15.21) rotate(-9.98)"/><path class="cls-2" d="M57.47,245c-.71.12-1-.1-1-.61l0-.18c-.09-.5.07-.8.78-.93l2.06-.36c.08-4.21,2.31-7.25,6.12-7.92s6.3,1.26,6.53,2.59a1.18,1.18,0,0,1-1,1.29,5.19,5.19,0,0,0-5.4-2.18c-2.62.46-4.2,2.71-4.35,5.87l6.37-1.12c.71-.12,1,.1,1,.61l0,.18c.09.5-.07.8-.78.93l-6.61,1.16a7.45,7.45,0,0,0,.12.83l.25,1.42a5.64,5.64,0,0,0,.15.7l6.61-1.16c.71-.12,1,.11,1,.61l0,.18c.09.5-.07.8-.78.93l-6.37,1.12c1.21,2.92,3.52,4.61,6.29,4.12,2.42-.43,3.62-1.91,4.2-4.14a1.15,1.15,0,0,1,1.38.91c.25,1.42-1.62,4.3-5.18,4.92-4,.71-7.16-1.32-8.65-5.47l-2,.36c-.71.12-1-.11-1-.61l0-.18c-.09-.5.07-.8.78-.93l1.86-.33a6.64,6.64,0,0,1-.16-.76l-.23-1.33a8.63,8.63,0,0,1-.12-.86Z"/><path class="cls-11" d="M81.85,278.47a1,1,0,0,0,.57-1.92c-.23-.15-5.45-3.7-4.45-12.75a1,1,0,0,0-2.07-.23C74.74,274,81,278.13,81.28,278.3A1,1,0,0,0,81.85,278.47Z"/><path class="cls-9" d="M87.69,236.48a1,1,0,0,1-.49-1.87,5.17,5.17,0,0,0,2.66-3.18c.91-3.2-1.16-7-1.18-7a1,1,0,1,1,1.75-1c.1.18,2.5,4.54,1.36,8.53a7.17,7.17,0,0,1-3.61,4.38A1,1,0,0,1,87.69,236.48Z"/><path class="cls-2" d="M86.39,222.09a8.74,8.74,0,0,1,3.27,5.35l4.14-.63a17.31,17.31,0,0,0-1.59-6.7C90.39,216,86.39,222.09,86.39,222.09Z"/><polygon class="cls-5" points="192.09 169.17 192.09 169.17 192.09 169.17 192.09 169.17"/><rect class="cls-5" x="192.09" y="169.17"/><polygon class="cls-5" points="192.09 169.17 192.09 169.17 192.09 169.17 192.09 169.17"/><polygon class="cls-5" points="192.09 169.17 192.09 169.17 192.09 169.17 192.09 169.17"/><polygon class="cls-5" points="192.09 169.17 192.09 169.17 192.09 169.17 192.09 169.17"/><rect class="cls-5" x="192.09" y="169.17"/><polygon class="cls-5" points="192.09 169.17 192.09 169.17 192.09 169.17 192.09 169.17"/><polygon class="cls-5" points="192.09 169.17 192.09 169.17 192.09 169.17 192.09 169.17"/><path class="cls-5" d="M238.67,155.93a48.66,48.66,0,0,0-47.05-36.1v48.7h0l-42.18,24.35a48.71,48.71,0,0,0,89.24-37Z"/><path class="cls-2" d="M179,121.48a48.41,48.41,0,0,0-11.75,4.87,48.7,48.7,0,0,0-17.83,66.54l42.18-24.35h0v-48.7A48.76,48.76,0,0,0,179,121.48Z"/><line class="cls-14" x1="191.62" y1="168.53" x2="143.32" y2="196.37"/><circle class="cls-4" cx="157.04" cy="290.27" r="24.23"/><path class="cls-2" d="M148.26,288.62c-.72,0-.93-.27-.93-.78v-.18c0-.51.21-.78.93-.78h2.1c.81-4.13,3.53-6.74,7.4-6.74s6,2.34,6,3.68a1.18,1.18,0,0,1-1.17,1.11,5.19,5.19,0,0,0-4.94-3.08c-2.66,0-4.61,1.95-5.3,5h6.47c.72,0,.93.27.93.78v.18c0,.51-.21.78-.93.78h-6.71a7.45,7.45,0,0,0,0,.84v1.44a5.64,5.64,0,0,0,0,.72h6.71c.72,0,.93.27.93.78v.18c0,.51-.21.78-.93.78h-6.47c.69,3.08,2.66,5.15,5.48,5.15,2.46,0,3.89-1.26,4.85-3.35.06-.12,1.2.15,1.2,1.14,0,1.44-2.34,4-6,4-4.1,0-6.83-2.55-7.58-6.88h-2.06c-.72,0-.93-.27-.93-.78v-.18c0-.51.21-.78.93-.78h1.89a6.64,6.64,0,0,1,0-.78v-1.35a8.63,8.63,0,0,1,0-.87Z"/><rect class="cls-15" x="0.44" width="386.03" height="533.64"/><rect class="cls-4" x="94.85" y="217.39" height="12.12"/><rect class="cls-3" x="94.69" y="217.39" width="0.32" height="12.12"/><rect class="cls-4" x="94.85" y="241.65" height="12.09"/><rect class="cls-3" x="94.69" y="241.65" width="0.32" height="12.09"/><polygon class="cls-4" points="106.97 265.86 106.97 265.86 131.2 265.86 131.2 265.86 106.97 265.86"/><rect class="cls-3" x="106.97" y="265.7" width="24.23" height="0.31"/><rect class="cls-4" x="94.85" y="241.62" height="0.02"/><polygon class="cls-3" points="95.01 241.65 94.69 241.65 95.01 241.62 95.01 241.65"/><polygon class="cls-4" points="131.2 265.86 131.2 265.86 155.43 265.86 155.43 265.86 131.2 265.86"/><rect class="cls-3" x="131.2" y="265.7" width="24.23" height="0.31"/><polygon class="cls-4" points="155.43 265.86 155.43 265.86 179.66 265.86 179.66 265.86 155.43 265.86"/><rect class="cls-3" x="155.43" y="265.7" width="24.23" height="0.31"/><rect class="cls-4" x="191.77" y="217.39" height="12.12"/><rect class="cls-3" x="191.62" y="217.39" width="0.32" height="12.12"/><rect class="cls-4" x="191.77" y="241.65" height="12.09"/><rect class="cls-3" x="191.62" y="241.65" width="0.32" height="12.09"/><rect class="cls-4" x="191.77" y="241.62" height="0.02"/><polygon class="cls-3" points="191.93 241.65 191.62 241.65 191.93 241.62 191.93 241.65"/><polygon class="cls-4" points="131.2 229.53 155.43 229.53 179.66 229.53 191.77 229.53 191.77 229.51 167.54 229.51 143.31 229.51 119.08 229.51 94.85 229.51 94.85 229.53 106.97 229.53 131.2 229.53"/><polygon class="cls-3" points="191.77 229.69 94.69 229.69 94.69 229.37 94.85 229.35 191.93 229.35 191.93 229.67 191.77 229.69"/><rect class="cls-4" x="94.85" y="217.39" width="24.23" height="12.12"/><path class="cls-3" d="M119.24,229.67H94.69V217.24h24.55ZM95,229.35h23.92v-11.8H95Z"/><rect class="cls-4" x="119.08" y="217.39" width="24.23" height="12.12"/><path class="cls-3" d="M143.47,229.67H118.92V217.24h24.55Zm-24.23-.31h23.92v-11.8H119.24Z"/><rect class="cls-4" x="143.31" y="217.39" width="24.23" height="12.12"/><path class="cls-3" d="M167.7,229.67H143.15V217.24H167.7Zm-24.23-.31h23.92v-11.8H143.47Z"/><polygon class="cls-4" points="131.2 241.62 131.2 229.53 106.97 229.53 106.97 241.62 119.08 241.62 131.2 241.62"/><path class="cls-3" d="M131.35,241.78H106.81V229.37h24.55Zm-24.23-.31H131V229.69H107.12Z"/><polygon class="cls-4" points="143.31 241.62 155.43 241.62 155.43 229.53 131.2 229.53 131.2 241.62 143.31 241.62"/><path class="cls-3" d="M155.59,241.78H131V229.37h24.55Zm-24.23-.31h23.92V229.69H131.35Z"/><polygon class="cls-4" points="167.54 241.62 179.66 241.62 179.66 229.53 155.43 229.53 155.43 241.62 167.54 241.62"/><path class="cls-3" d="M179.82,241.78H155.27V229.37h24.55Zm-24.23-.31H179.5V229.69H155.59Z"/><polygon class="cls-4" points="119.08 253.74 119.08 241.65 106.97 241.65 94.85 241.65 94.85 253.74 106.97 253.74 119.08 253.74"/><path class="cls-3" d="M119.24,253.9H94.69V241.49h24.55ZM95,253.58h23.92V241.8H95Z"/><rect class="cls-4" x="106.97" y="241.62" width="12.12" height="0.02"/><polygon class="cls-3" points="119.08 241.8 106.81 241.8 106.81 241.49 106.97 241.47 119.24 241.47 119.24 241.78 119.08 241.8"/><polygon class="cls-4" points="131.2 241.65 119.08 241.65 119.08 253.74 131.2 253.74 143.31 253.74 143.31 241.65 131.2 241.65"/><path class="cls-3" d="M143.47,253.9H118.92V241.49h24.55Zm-24.23-.31h23.92V241.8H119.24Z"/><rect class="cls-4" x="119.08" y="241.62" width="12.12" height="0.02"/><polygon class="cls-3" points="131.35 241.8 118.92 241.8 118.92 241.49 119.08 241.47 131.35 241.47 131.35 241.8"/><rect class="cls-4" x="131.2" y="241.62" width="12.12" height="0.02"/><polygon class="cls-3" points="143.31 241.8 131.04 241.8 131.04 241.49 131.2 241.47 143.47 241.47 143.47 241.78 143.31 241.8"/><polygon class="cls-4" points="143.31 241.65 143.31 253.74 155.43 253.74 167.54 253.74 167.54 241.65 155.43 241.65 143.31 241.65"/><path class="cls-3" d="M167.7,253.9H143.15V241.49H167.7Zm-24.23-.31h23.92V241.8H143.47Z"/><rect class="cls-4" x="143.31" y="241.62" width="12.12" height="0.02"/><polygon class="cls-3" points="155.43 241.8 143.16 241.8 143.16 241.49 143.31 241.47 155.59 241.47 155.59 241.78 155.43 241.8"/><rect class="cls-4" x="155.43" y="241.62" width="12.12" height="0.02"/><polygon class="cls-3" points="167.54 241.8 155.27 241.8 155.27 241.49 155.43 241.47 167.7 241.47 167.7 241.78 167.54 241.8"/><polygon class="cls-4" points="119.08 253.74 106.97 253.74 106.97 265.86 131.2 265.86 131.2 253.74 119.08 253.74"/><path class="cls-3" d="M131.35,266H106.81V253.58h24.55Zm-24.23-.31H131V253.9H107.12Z"/><rect class="cls-4" x="94.85" y="229.53" width="12.12" height="12.09"/><path class="cls-3" d="M107.12,241.78H94.69V229.37h12.43ZM95,241.47h11.8V229.69H95Z"/><rect class="cls-4" x="94.85" y="241.62" width="12.12" height="0.02"/><polygon class="cls-3" points="106.97 241.8 94.69 241.8 94.69 241.49 94.85 241.47 107.12 241.47 107.12 241.78 106.97 241.8"/><rect class="cls-4" x="94.85" y="253.74" width="12.12" height="12.12"/><path class="cls-3" d="M107.12,266H94.69V253.58h12.43ZM95,265.7h11.8V253.9H95Z"/><polygon class="cls-4" points="143.31 253.74 131.2 253.74 131.2 265.86 155.43 265.86 155.43 253.74 143.31 253.74"/><path class="cls-3" d="M155.59,266H131V253.58h24.55Zm-24.23-.31h23.92V253.9H131.35Z"/><polygon class="cls-4" points="167.54 253.74 155.43 253.74 155.43 265.86 179.66 265.86 179.66 253.74 167.54 253.74"/><path class="cls-3" d="M179.82,266H155.27V253.58h24.55Zm-24.23-.31H179.5V253.9H155.59Z"/><rect class="cls-4" x="167.54" y="217.39" width="24.23" height="12.12"/><path class="cls-3" d="M191.93,229.67H167.39V217.24h24.55Zm-24.23-.31h23.92v-11.8H167.7Z"/><rect class="cls-4" x="179.66" y="229.53" width="12.12" height="12.09"/><path class="cls-3" d="M191.93,241.78H179.5V229.37h12.43Zm-12.12-.31h11.8V229.69h-11.8Z"/><polygon class="cls-4" points="167.54 241.65 167.54 253.74 179.66 253.74 191.77 253.74 191.77 241.65 179.66 241.65 167.54 241.65"/><path class="cls-3" d="M191.93,253.9H167.39V241.49h24.55Zm-24.23-.31h23.92V241.8H167.7Z"/><rect class="cls-4" x="167.54" y="241.62" width="12.12" height="0.02"/><polygon class="cls-3" points="179.66 241.8 167.38 241.8 167.38 241.47 179.82 241.47 179.82 241.78 179.66 241.8"/><rect class="cls-4" x="179.66" y="241.62" width="12.12" height="0.02"/><polygon class="cls-3" points="191.77 241.8 179.5 241.8 179.5 241.49 179.66 241.47 191.93 241.47 191.93 241.78 191.77 241.8"/><rect class="cls-4" x="179.66" y="253.74" width="12.12" height="12.12"/><path class="cls-3" d="M191.93,266H179.5V253.58h12.43Zm-12.12-.31h11.8V253.9h-11.8Z"/><rect class="cls-4" x="191.77" y="217.39" height="12.12"/><rect class="cls-3" x="191.62" y="217.39" width="0.32" height="12.12"/><rect class="cls-4" x="191.77" y="241.65" height="12.09"/><rect class="cls-3" x="191.62" y="241.65" width="0.32" height="12.09"/><polygon class="cls-4" points="203.89 265.86 203.89 265.86 228.12 265.86 228.12 265.86 203.89 265.86"/><rect class="cls-3" x="203.89" y="265.7" width="24.23" height="0.31"/><rect class="cls-4" x="191.77" y="241.62" height="0.02"/><polygon class="cls-3" points="191.93 241.65 191.62 241.65 191.93 241.62 191.93 241.65"/><polygon class="cls-4" points="228.12 265.86 228.12 265.86 252.35 265.86 252.35 265.86 228.12 265.86"/><rect class="cls-3" x="228.12" y="265.7" width="24.23" height="0.31"/><polygon class="cls-4" points="252.35 265.86 252.35 265.86 276.58 265.86 276.58 265.86 252.35 265.86"/><rect class="cls-3" x="252.35" y="265.7" width="24.23" height="0.31"/><rect class="cls-4" x="288.7" y="217.39" height="12.12"/><rect class="cls-3" x="288.54" y="217.39" width="0.32" height="12.12"/><rect class="cls-4" x="288.7" y="241.65" height="12.09"/><rect class="cls-3" x="288.54" y="241.65" width="0.32" height="12.09"/><rect class="cls-4" x="288.7" y="241.62" height="0.02"/><polygon class="cls-3" points="288.85 241.65 288.54 241.65 288.85 241.62 288.85 241.65"/><polygon class="cls-4" points="228.12 229.53 252.35 229.53 276.58 229.53 288.7 229.53 288.7 229.51 264.47 229.51 240.24 229.51 216 229.51 191.77 229.51 191.77 229.53 203.89 229.53 228.12 229.53"/><polygon class="cls-3" points="288.7 229.69 191.62 229.69 191.62 229.37 191.77 229.35 288.85 229.35 288.85 229.67 288.7 229.69"/><rect class="cls-4" x="191.77" y="217.39" width="24.23" height="12.12"/><path class="cls-3" d="M216.16,229.67H191.62V217.24h24.55Zm-24.23-.31h23.92v-11.8H191.93Z"/><rect class="cls-4" x="216" y="217.39" width="24.23" height="12.12"/><path class="cls-3" d="M240.39,229.67H215.85V217.24h24.55Zm-24.23-.31h23.92v-11.8H216.16Z"/><rect class="cls-4" x="240.24" y="217.39" width="24.23" height="12.12"/><path class="cls-3" d="M264.62,229.67H240.08V217.24h24.55Zm-24.23-.31h23.92v-11.8H240.39Z"/><polygon class="cls-4" points="228.12 241.62 228.12 229.53 203.89 229.53 203.89 241.62 216 241.62 228.12 241.62"/><path class="cls-3" d="M228.28,241.78H203.73V229.37h24.55ZM204,241.47H228V229.69H204Z"/><polygon class="cls-4" points="240.24 241.62 252.35 241.62 252.35 229.53 228.12 229.53 228.12 241.62 240.24 241.62"/><path class="cls-3" d="M252.51,241.78H228V229.37h24.55Zm-24.23-.31h23.92V229.69H228.28Z"/><polygon class="cls-4" points="264.47 241.62 276.58 241.62 276.58 229.53 252.35 229.53 252.35 241.62 264.47 241.62"/><path class="cls-3" d="M276.74,241.78H252.19V229.37h24.55Zm-24.23-.31h23.92V229.69H252.51Z"/><polygon class="cls-4" points="216 253.74 216 241.65 203.89 241.65 191.77 241.65 191.77 253.74 203.89 253.74 216 253.74"/><path class="cls-3" d="M216.16,253.9H191.62V241.49h24.55Zm-24.23-.31h23.92V241.8H191.93Z"/><rect class="cls-4" x="203.89" y="241.62" width="12.12" height="0.02"/><polygon class="cls-3" points="216 241.8 203.73 241.8 203.73 241.49 203.89 241.47 216.16 241.47 216.16 241.78 216 241.8"/><polygon class="cls-4" points="228.12 241.65 216 241.65 216 253.74 228.12 253.74 240.24 253.74 240.24 241.65 228.12 241.65"/><path class="cls-3" d="M240.39,253.9H215.85V241.49h24.55Zm-24.23-.31h23.92V241.8H216.16Z"/><rect class="cls-4" x="216" y="241.62" width="12.12" height="0.02"/><polygon class="cls-3" points="228.28 241.8 215.85 241.8 215.85 241.49 216 241.47 228.28 241.47 228.28 241.8"/><rect class="cls-4" x="228.12" y="241.62" width="12.12" height="0.02"/><polygon class="cls-3" points="240.24 241.8 227.96 241.8 227.96 241.49 228.12 241.47 240.39 241.47 240.39 241.78 240.24 241.8"/><polygon class="cls-4" points="240.24 241.65 240.24 253.74 252.35 253.74 264.47 253.74 264.47 241.65 252.35 241.65 240.24 241.65"/><path class="cls-3" d="M264.62,253.9H240.08V241.49h24.55Zm-24.23-.31h23.92V241.8H240.39Z"/><rect class="cls-4" x="240.24" y="241.62" width="12.12" height="0.02"/><polygon class="cls-3" points="252.35 241.8 240.08 241.8 240.08 241.49 240.24 241.47 252.51 241.47 252.51 241.78 252.35 241.8"/><rect class="cls-4" x="252.35" y="241.62" width="12.12" height="0.02"/><polygon class="cls-3" points="264.47 241.8 252.19 241.8 252.19 241.49 252.35 241.47 264.62 241.47 264.62 241.78 264.47 241.8"/><polygon class="cls-4" points="216 253.74 203.89 253.74 203.89 265.86 228.12 265.86 228.12 253.74 216 253.74"/><path class="cls-3" d="M228.28,266H203.73V253.58h24.55ZM204,265.7H228V253.9H204Z"/><rect class="cls-4" x="191.77" y="229.53" width="12.12" height="12.09"/><path class="cls-3" d="M204,241.78H191.62V229.37H204Zm-12.12-.31h11.8V229.69h-11.8Z"/><rect class="cls-4" x="191.77" y="241.62" width="12.12" height="0.02"/><polygon class="cls-3" points="203.89 241.8 191.62 241.8 191.62 241.49 191.77 241.47 204.05 241.47 204.05 241.78 203.89 241.8"/><rect class="cls-4" x="191.77" y="253.74" width="12.12" height="12.12"/><path class="cls-3" d="M204,266H191.62V253.58H204Zm-12.12-.31h11.8V253.9h-11.8Z"/><polygon class="cls-4" points="240.24 253.74 228.12 253.74 228.12 265.86 252.35 265.86 252.35 253.74 240.24 253.74"/><path class="cls-3" d="M252.51,266H228V253.58h24.55Zm-24.23-.31h23.92V253.9H228.28Z"/><polygon class="cls-4" points="264.47 253.74 252.35 253.74 252.35 265.86 276.58 265.86 276.58 253.74 264.47 253.74"/><path class="cls-3" d="M276.74,266H252.19V253.58h24.55Zm-24.23-.31h23.92V253.9H252.51Z"/><rect class="cls-4" x="264.47" y="217.39" width="24.23" height="12.12"/><path class="cls-3" d="M288.85,229.67H264.31V217.24h24.55Zm-24.23-.31h23.92v-11.8H264.62Z"/><rect class="cls-4" x="276.58" y="229.53" width="12.12" height="12.09"/><path class="cls-3" d="M288.85,241.78H276.42V229.37h12.43Zm-12.12-.31h11.8V229.69h-11.8Z"/><polygon class="cls-4" points="264.47 241.65 264.47 253.74 276.58 253.74 288.7 253.74 288.7 241.65 276.58 241.65 264.47 241.65"/><path class="cls-3" d="M288.85,253.9H264.31V241.49h24.55Zm-24.23-.31h23.92V241.8H264.62Z"/><rect class="cls-4" x="264.47" y="241.62" width="12.12" height="0.02"/><polygon class="cls-3" points="276.58 241.8 264.31 241.8 264.31 241.47 276.74 241.47 276.74 241.78 276.58 241.8"/><rect class="cls-4" x="276.58" y="241.62" width="12.12" height="0.02"/><polygon class="cls-3" points="288.7 241.8 276.42 241.8 276.42 241.49 276.58 241.47 288.85 241.47 288.85 241.78 288.7 241.8"/><rect class="cls-4" x="276.58" y="253.74" width="12.12" height="12.12"/><path class="cls-3" d="M288.85,266H276.42V253.58h12.43Zm-12.12-.31h11.8V253.9h-11.8Z"/><rect class="cls-3" x="143.24" y="13.42" height="12.12"/><rect class="cls-4" x="143.08" y="13.42" width="0.32" height="12.12"/><rect class="cls-3" x="143.24" y="37.67" height="12.09"/><rect class="cls-4" x="143.08" y="37.67" width="0.32" height="12.09"/><polygon class="cls-3" points="155.36 61.88 155.36 61.88 179.59 61.88 179.59 61.88 155.36 61.88"/><rect class="cls-4" x="155.36" y="61.73" width="24.23" height="0.31"/><rect class="cls-3" x="143.24" y="37.65" height="0.02"/><polygon class="cls-4" points="143.4 37.67 143.08 37.67 143.4 37.65 143.4 37.67"/><polygon class="cls-3" points="179.59 61.88 179.59 61.88 203.82 61.88 203.82 61.88 179.59 61.88"/><rect class="cls-4" x="179.59" y="61.73" width="24.23" height="0.31"/><polygon class="cls-3" points="203.82 61.88 203.82 61.88 228.05 61.88 228.05 61.88 203.82 61.88"/><rect class="cls-4" x="203.82" y="61.73" width="24.23" height="0.31"/><rect class="cls-3" x="240.16" y="13.42" height="12.12"/><rect class="cls-4" x="240.01" y="13.42" width="0.31" height="12.12"/><rect class="cls-3" x="240.16" y="37.67" height="12.09"/><rect class="cls-4" x="240.01" y="37.67" width="0.31" height="12.09"/><rect class="cls-3" x="240.16" y="37.65" height="0.02"/><polygon class="cls-4" points="240.32 37.67 240.01 37.67 240.32 37.65 240.32 37.67"/><polygon class="cls-3" points="179.59 25.56 203.82 25.56 228.05 25.56 240.16 25.56 240.16 25.54 215.93 25.54 191.7 25.54 167.47 25.54 143.24 25.54 143.24 25.56 155.36 25.56 179.59 25.56"/><polygon class="cls-4" points="240.16 25.72 143.08 25.72 143.08 25.4 143.24 25.38 240.32 25.38 240.32 25.69 240.16 25.72"/><rect class="cls-3" x="143.24" y="13.42" width="24.23" height="12.12"/><path class="cls-4" d="M167.63,25.69H143.08V13.26h24.55Zm-24.23-.32h23.92V13.58H143.4Z"/><rect class="cls-3" x="167.47" y="13.42" width="24.23" height="12.12"/><path class="cls-4" d="M191.86,25.69H167.31V13.26h24.55Zm-24.23-.32h23.92V13.58H167.63Z"/><rect class="cls-3" x="191.7" y="13.42" width="24.23" height="12.12"/><path class="cls-4" d="M216.09,25.69H191.55V13.26h24.54Zm-24.23-.32h23.92V13.58H191.86Z"/><polygon class="cls-3" points="179.59 37.65 179.59 25.56 155.36 25.56 155.36 37.65 167.47 37.65 179.59 37.65"/><path class="cls-4" d="M179.74,37.81H155.2V25.4h24.55Zm-24.23-.32h23.92V25.72H155.51Z"/><polygon class="cls-3" points="191.7 37.65 203.82 37.65 203.82 25.56 179.59 25.56 179.59 37.65 191.7 37.65"/><path class="cls-4" d="M204,37.81H179.43V25.4H204Zm-24.23-.32h23.92V25.72H179.74Z"/><polygon class="cls-3" points="215.93 37.65 228.05 37.65 228.05 25.56 203.82 25.56 203.82 37.65 215.93 37.65"/><path class="cls-4" d="M228.21,37.81H203.66V25.4h24.54ZM204,37.49h23.92V25.72H204Z"/><polygon class="cls-3" points="167.47 49.77 167.47 37.67 155.36 37.67 143.24 37.67 143.24 49.77 155.36 49.77 167.47 49.77"/><path class="cls-4" d="M167.63,49.92H143.08V37.52h24.55Zm-24.23-.31h23.92V37.83H143.4Z"/><rect class="cls-3" x="155.36" y="37.65" width="12.12" height="0.02"/><polygon class="cls-4" points="167.47 37.83 155.2 37.83 155.2 37.52 155.36 37.49 167.63 37.49 167.63 37.81 167.47 37.83"/><polygon class="cls-3" points="179.59 37.67 167.47 37.67 167.47 49.77 179.59 49.77 191.7 49.77 191.7 37.67 179.59 37.67"/><path class="cls-4" d="M191.86,49.92H167.31V37.52h24.55Zm-24.23-.31h23.92V37.83H167.63Z"/><rect class="cls-3" x="167.47" y="37.65" width="12.12" height="0.02"/><polygon class="cls-4" points="179.74 37.83 167.31 37.83 167.31 37.52 167.47 37.49 179.74 37.49 179.74 37.83"/><rect class="cls-3" x="179.59" y="37.65" width="12.12" height="0.02"/><polygon class="cls-4" points="191.7 37.83 179.43 37.83 179.43 37.52 179.59 37.49 191.86 37.49 191.86 37.81 191.7 37.83"/><polygon class="cls-3" points="191.7 37.67 191.7 49.77 203.82 49.77 215.93 49.77 215.93 37.67 203.82 37.67 191.7 37.67"/><path class="cls-4" d="M216.09,49.92H191.55V37.52h24.54Zm-24.23-.31h23.92V37.83H191.86Z"/><rect class="cls-3" x="191.7" y="37.65" width="12.12" height="0.02"/><polygon class="cls-4" points="203.82 37.83 191.55 37.83 191.55 37.52 191.7 37.49 203.98 37.49 203.98 37.81 203.82 37.83"/><rect class="cls-3" x="203.82" y="37.65" width="12.12" height="0.02"/><polygon class="cls-4" points="215.93 37.83 203.66 37.83 203.66 37.52 203.82 37.49 216.09 37.49 216.09 37.81 215.93 37.83"/><polygon class="cls-3" points="167.47 49.77 155.36 49.77 155.36 61.88 179.59 61.88 179.59 49.77 167.47 49.77"/><path class="cls-4" d="M179.74,62H155.2V49.61h24.55Zm-24.23-.31h23.92V49.92H155.51Z"/><rect class="cls-3" x="143.24" y="25.56" width="12.12" height="12.09"/><path class="cls-4" d="M155.51,37.81H143.08V25.4h12.43Zm-12.12-.32h11.8V25.72H143.4Z"/><rect class="cls-3" x="143.24" y="37.65" width="12.12" height="0.02"/><polygon class="cls-4" points="155.36 37.83 143.08 37.83 143.08 37.52 143.24 37.49 155.51 37.49 155.51 37.81 155.36 37.83"/><rect class="cls-3" x="143.24" y="49.77" width="12.12" height="12.12"/><path class="cls-4" d="M155.51,62H143.08V49.61h12.43Zm-12.12-.31h11.8V49.92H143.4Z"/><polygon class="cls-3" points="191.7 49.77 179.59 49.77 179.59 61.88 203.82 61.88 203.82 49.77 191.7 49.77"/><path class="cls-4" d="M204,62H179.43V49.61H204Zm-24.23-.31h23.92V49.92H179.74Z"/><polygon class="cls-3" points="215.93 49.77 203.82 49.77 203.82 61.88 228.05 61.88 228.05 49.77 215.93 49.77"/><path class="cls-4" d="M228.21,62H203.66V49.61h24.54ZM204,61.73h23.92V49.92H204Z"/><rect class="cls-3" x="215.93" y="13.42" width="24.23" height="12.12"/><path class="cls-4" d="M240.32,25.69H215.78V13.26h24.54Zm-24.23-.32H240V13.58H216.09Z"/><rect class="cls-3" x="228.05" y="25.56" width="12.12" height="12.09"/><path class="cls-4" d="M240.32,37.81H227.89V25.4h12.43Zm-12.12-.32H240V25.72h-11.8Z"/><polygon class="cls-3" points="215.93 37.67 215.93 49.77 228.05 49.77 240.16 49.77 240.16 37.67 228.05 37.67 215.93 37.67"/><path class="cls-4" d="M240.32,49.92H215.78V37.52h24.54Zm-24.23-.31H240V37.83H216.09Z"/><rect class="cls-3" x="215.93" y="37.65" width="12.12" height="0.02"/><polygon class="cls-4" points="228.05 37.83 215.78 37.83 215.78 37.49 228.21 37.49 228.21 37.81 228.05 37.83"/><rect class="cls-3" x="228.05" y="37.65" width="12.12" height="0.02"/><polygon class="cls-4" points="240.16 37.83 227.89 37.83 227.89 37.52 228.05 37.49 240.32 37.49 240.32 37.81 240.16 37.83"/><rect class="cls-3" x="228.05" y="49.77" width="12.12" height="12.12"/><path class="cls-4" d="M240.32,62H227.89V49.61h12.43Zm-12.12-.31H240V49.92h-11.8Z"/></g></g></svg>